<svg width="74" height="67" viewBox="0 0 74 67" fill="none" xmlns="http://www.w3.org/2000/svg">
<path fill-rule="evenodd" clip-rule="evenodd" d="M36.54 0C40.2618 0 43.5932 1.93026 45.4396 5.16317L71.6604 51.0077C73.4958 54.2151 73.4849 58.0428 71.6276 61.2428C69.7703 64.4466 66.4535 66.3586 62.7572 66.3586H10.2753C6.57533 66.3586 3.2585 64.4466 1.40122 61.2428C-0.456062 58.0428 -0.467008 54.2151 1.36838 51.0077L27.6403 5.15587C29.4867 1.92661 32.8108 0 36.5363 0H36.54ZM36.5363 5.47332C34.7994 5.47332 33.2523 6.37095 32.3839 7.87794L6.11922 53.7261C5.26539 55.2222 5.27268 57.0065 6.13747 58.4989C7.00225 59.9913 8.54938 60.8853 10.2753 60.8853H62.7572C64.4794 60.8853 66.0266 59.9913 66.8914 58.4989C67.7598 57.0065 67.7671 55.2222 66.906 53.7261L40.6887 7.87794C39.824 6.37095 38.2768 5.47332 36.5363 5.47332ZM36.5115 45.6074C38.5293 45.6074 40.1604 47.2384 40.1604 49.2563C40.1604 51.2741 38.5293 52.9051 36.5115 52.9051C34.4937 52.9051 32.8444 51.2741 32.8444 49.2563C32.8444 47.2384 34.4608 45.6074 36.475 45.6074H36.5115ZM36.5042 23.9513C38.0148 23.9513 39.2409 25.1773 39.2409 26.6879V37.9995C39.2409 39.5101 38.0148 40.7361 36.5042 40.7361C34.9936 40.7361 33.7675 39.5101 33.7675 37.9995V26.6879C33.7675 25.1773 34.9936 23.9513 36.5042 23.9513Z" fill="#F11919"/>
</svg>
