<svg width="17" height="20" viewBox="0 0 17 20" fill="none" xmlns="http://www.w3.org/2000/svg">
<path d="M6.69058 17.0578C7.1797 16.9543 10.1601 16.9543 10.6493 17.0578C11.0674 17.1543 11.5196 17.38 11.5196 17.8727C11.4953 18.3418 11.2201 18.7576 10.8399 19.0217C10.3469 19.406 9.76826 19.6494 9.16342 19.7371C8.82891 19.7805 8.50024 19.7815 8.1774 19.7371C7.57158 19.6494 6.993 19.406 6.50096 19.0207C6.11977 18.7576 5.84458 18.3418 5.82027 17.8727C5.82027 17.38 6.27244 17.1543 6.69058 17.0578ZM8.72769 0.20166C10.7629 0.20166 12.842 1.16738 14.0769 2.76968C14.8782 3.80142 15.2458 4.83218 15.2458 6.43448V6.85132C15.2458 8.08014 15.5706 8.80443 16.2853 9.63909C16.8269 10.254 17 11.0433 17 11.8997C17 12.755 16.719 13.567 16.1559 14.2262C15.4189 15.0166 14.3793 15.5211 13.3184 15.6088C11.7811 15.7399 10.2427 15.8502 8.68393 15.8502C7.12418 15.8502 5.58679 15.7842 4.04941 15.6088C2.98753 15.5211 1.94803 15.0166 1.21191 14.2262C0.648882 13.567 0.366882 12.755 0.366882 11.8997C0.366882 11.0433 0.540944 10.254 1.08161 9.63909C1.81869 8.80443 2.12209 8.08014 2.12209 6.85132V6.43448C2.12209 4.78882 2.53245 3.71273 3.37747 2.65931C4.63383 1.12303 6.6477 0.20166 8.64017 0.20166H8.72769Z" fill="white"/>
</svg>
