<svg width="24" height="24" viewBox="0 0 24 24" fill="none" xmlns="http://www.w3.org/2000/svg">
<path d="M16.146 7.72401C16.2561 7.71869 16.3599 7.67122 16.4359 7.59145C16.5119 7.51167 16.5543 7.4057 16.5543 7.29551C16.5543 7.18532 16.5119 7.07935 16.4359 6.99957C16.3599 6.9198 16.2561 6.87233 16.146 6.86701C15.9918 6.86721 15.8397 6.83175 15.7015 6.76341C15.5633 6.69506 15.4427 6.59568 15.3493 6.47303C15.2558 6.35037 15.192 6.20777 15.1628 6.05637C15.1336 5.90496 15.1398 5.74886 15.1809 5.60025C15.2221 5.45164 15.297 5.31456 15.3999 5.19972C15.5028 5.08488 15.6309 4.99538 15.7741 4.93823C15.9173 4.88108 16.0718 4.85783 16.2255 4.87028C16.3791 4.88273 16.5279 4.93055 16.66 5.01001H17.792C17.64 4.71771 17.4129 4.47112 17.1341 4.29556C16.8552 4.12001 16.5347 4.02179 16.2054 4.01101C15.8761 4.00022 15.5498 4.07724 15.2601 4.23418C14.9704 4.39111 14.7276 4.62231 14.5568 4.90403C14.3859 5.18576 14.2931 5.50787 14.2878 5.83732C14.2826 6.16677 14.3651 6.49168 14.5268 6.77873C14.6886 7.06577 14.9238 7.30461 15.2084 7.47073C15.4929 7.63684 15.8165 7.72426 16.146 7.72401Z" fill="white"/>
<path d="M11.8231 7.72401C11.8811 7.72681 11.9391 7.71781 11.9935 7.69754C12.0479 7.67727 12.0977 7.64616 12.1397 7.6061C12.1818 7.56603 12.2153 7.51784 12.2381 7.46445C12.261 7.41107 12.2728 7.35359 12.2728 7.29551C12.2728 7.23743 12.261 7.17995 12.2381 7.12657C12.2153 7.07318 12.1818 7.02499 12.1397 6.98493C12.0977 6.94486 12.0479 6.91375 11.9935 6.89348C11.9391 6.87321 11.8811 6.86421 11.8231 6.86701C11.6689 6.86721 11.5167 6.83176 11.3785 6.76341C11.2403 6.69506 11.1198 6.59568 11.0263 6.47303C10.9329 6.35037 10.8691 6.20777 10.8399 6.05637C10.8107 5.90496 10.8169 5.74886 10.858 5.60025C10.8991 5.45164 10.9741 5.31456 11.077 5.19972C11.1799 5.08488 11.3079 4.99539 11.4511 4.93824C11.5943 4.88109 11.7488 4.85783 11.9025 4.87028C12.0562 4.88273 12.2049 4.93055 12.3371 5.01001H13.4661C13.314 4.71774 13.087 4.47119 12.8082 4.29563C12.5294 4.12008 12.209 4.02184 11.8797 4.01101C11.5504 4.00018 11.2242 4.07714 10.9345 4.234C10.6448 4.39086 10.402 4.62196 10.2311 4.90361C10.0602 5.18525 9.9673 5.50729 9.96192 5.83669C9.95654 6.1661 10.0389 6.491 10.2005 6.77807C10.3621 7.06515 10.5972 7.30406 10.8817 7.47029C11.1661 7.63652 11.4896 7.72409 11.8191 7.72401H11.8231Z" fill="white"/>
<path d="M18.8451 5.96803C18.8602 5.90507 18.8608 5.8395 18.847 5.77626C18.8331 5.71302 18.8052 5.65373 18.7651 5.60284C18.7251 5.55194 18.6741 5.51077 18.6159 5.4824C18.5577 5.45403 18.4938 5.4392 18.4291 5.43903H15.7701C15.6829 5.51564 15.6211 5.61702 15.5929 5.72965C15.5648 5.84229 15.5717 5.96082 15.6126 6.06945C15.6536 6.17808 15.7267 6.27165 15.8222 6.33768C15.9177 6.40371 16.031 6.43906 16.1471 6.43903C16.3744 6.43903 16.5924 6.52931 16.7531 6.69003C16.9138 6.85075 17.0041 7.06873 17.0041 7.29602C17.0041 7.52331 16.9138 7.7413 16.7531 7.90202C16.5924 8.06273 16.3744 8.15302 16.1471 8.15302C15.8106 8.15329 15.4781 8.07919 15.1736 7.93602C14.869 7.79285 14.5998 7.58413 14.3853 7.32481C14.1708 7.0655 14.0163 6.76199 13.9327 6.43598C13.8492 6.10998 13.8387 5.76954 13.9021 5.43903H11.4451C11.3579 5.51564 11.2961 5.61702 11.2679 5.72965C11.2398 5.84229 11.2467 5.96082 11.2876 6.06945C11.3286 6.17808 11.4017 6.27165 11.4972 6.33768C11.5927 6.40371 11.706 6.43906 11.8221 6.43903C12.0494 6.43903 12.2674 6.52931 12.4281 6.69003C12.5888 6.85075 12.6791 7.06873 12.6791 7.29602C12.6791 7.52331 12.5888 7.7413 12.4281 7.90202C12.2674 8.06273 12.0494 8.15302 11.8221 8.15302C11.4856 8.15329 11.1531 8.07919 10.8486 7.93602C10.544 7.79285 10.2748 7.58413 10.0603 7.32481C9.84583 7.0655 9.69128 6.76199 9.60774 6.43598C9.5242 6.10998 9.51374 5.76954 9.5771 5.43903H7.1241C7.03687 5.51564 6.97507 5.61702 6.94694 5.72965C6.91881 5.84229 6.92568 5.96082 6.96663 6.06945C7.00759 6.17808 7.08068 6.27165 7.17617 6.33768C7.27165 6.40371 7.385 6.43906 7.50109 6.43903C7.72839 6.43903 7.94637 6.52931 8.10709 6.69003C8.26781 6.85075 8.35809 7.06873 8.35809 7.29602C8.35809 7.52331 8.26781 7.7413 8.10709 7.90202C7.94637 8.06273 7.72839 8.15302 7.50109 8.15302C7.16456 8.15329 6.83212 8.07919 6.52756 7.93602C6.223 7.79285 5.95383 7.58413 5.73933 7.32481C5.52483 7.0655 5.37028 6.76199 5.28674 6.43598C5.2032 6.10998 5.19274 5.76954 5.2561 5.43903H5.0051C4.90888 5.43901 4.81544 5.47134 4.73981 5.53083C4.66418 5.59032 4.61075 5.6735 4.5881 5.76702L3.9231 8.51003H18.2321L18.8451 5.96803Z" fill="white"/>
<path d="M7.50002 7.72401C7.61008 7.71869 7.71388 7.67122 7.7899 7.59145C7.86591 7.51167 7.90831 7.4057 7.90831 7.29551C7.90831 7.18532 7.86591 7.07935 7.7899 6.99957C7.71388 6.9198 7.61008 6.87233 7.50002 6.86701C7.34583 6.86721 7.19367 6.83176 7.05545 6.76341C6.91723 6.69506 6.79669 6.59568 6.70325 6.47303C6.60981 6.35037 6.54599 6.20777 6.5168 6.05636C6.4876 5.90496 6.49381 5.74886 6.53495 5.60025C6.57608 5.45164 6.65102 5.31456 6.75391 5.19972C6.8568 5.08488 6.98486 4.99538 7.12807 4.93823C7.27128 4.88108 7.42577 4.85782 7.57946 4.87028C7.73315 4.88273 7.88187 4.93055 8.01402 5.01001H9.14602C8.99398 4.71774 8.76693 4.47119 8.48815 4.29563C8.20938 4.12008 7.88892 4.02184 7.55965 4.01101C7.23038 4.00018 6.90415 4.07714 6.61444 4.234C6.32473 4.39086 6.08197 4.62196 5.91105 4.9036C5.74014 5.18525 5.64723 5.50729 5.64185 5.83669C5.63647 6.16609 5.71882 6.491 5.88045 6.77807C6.04208 7.06515 6.27717 7.30405 6.5616 7.47028C6.84604 7.63651 7.16957 7.72408 7.49902 7.72401H7.50002Z" fill="white"/>
<path d="M18.8601 13.76V7.73703L17.5481 13.147C18.0171 13.2752 18.4609 13.4825 18.8601 13.76Z" fill="white"/>
<path d="M16.4221 12.997C16.659 12.9972 16.8955 13.0169 17.1291 13.056L18.1291 8.93903H3.8191L2.3021 15.195C2.28701 15.258 2.28636 15.3235 2.30021 15.3868C2.31406 15.45 2.34204 15.5093 2.38206 15.5602C2.42208 15.6111 2.4731 15.6523 2.5313 15.6806C2.5895 15.709 2.65336 15.7238 2.7181 15.724H12.4281C12.7427 14.9207 13.292 14.2309 14.0044 13.7444C14.7169 13.258 15.5594 12.9975 16.4221 12.997ZM14.2891 10.153H15.4281C15.5382 10.1583 15.642 10.2058 15.718 10.2856C15.794 10.3654 15.8364 10.4713 15.8364 10.5815C15.8364 10.6917 15.794 10.7977 15.718 10.8775C15.642 10.9572 15.5382 11.0047 15.4281 11.01H14.2891C14.179 11.0047 14.0752 10.9572 13.9992 10.8775C13.9232 10.7977 13.8808 10.6917 13.8808 10.5815C13.8808 10.4713 13.9232 10.3654 13.9992 10.2856C14.0752 10.2058 14.179 10.1583 14.2891 10.153ZM6.0041 14.438H4.8611C4.80309 14.4408 4.74511 14.4318 4.69068 14.4115C4.63625 14.3913 4.58651 14.3602 4.54446 14.3201C4.50241 14.28 4.46893 14.2319 4.44606 14.1785C4.42319 14.1251 4.4114 14.0676 4.4114 14.0095C4.4114 13.9514 4.42319 13.894 4.44606 13.8406C4.46893 13.7872 4.50241 13.739 4.54446 13.6989C4.58651 13.6589 4.63625 13.6278 4.69068 13.6075C4.74511 13.5872 4.80309 13.5782 4.8611 13.581H6.0041C6.06211 13.5782 6.12009 13.5872 6.17452 13.6075C6.22895 13.6278 6.2787 13.6589 6.32074 13.6989C6.36279 13.739 6.39627 13.7872 6.41914 13.8406C6.44201 13.894 6.45381 13.9514 6.45381 14.0095C6.45381 14.0676 6.44201 14.1251 6.41914 14.1785C6.39627 14.2319 6.36279 14.28 6.32074 14.3201C6.2787 14.3602 6.22895 14.3913 6.17452 14.4115C6.12009 14.4318 6.06211 14.4408 6.0041 14.438ZM6.2901 12.724H5.1471C5.03704 12.7187 4.93324 12.6712 4.85722 12.5915C4.78121 12.5117 4.73881 12.4057 4.73881 12.2955C4.73881 12.1853 4.78121 12.0794 4.85722 11.9996C4.93324 11.9198 5.03704 11.8723 5.1471 11.867H6.2901C6.40017 11.8723 6.50396 11.9198 6.57998 11.9996C6.65599 12.0794 6.6984 12.1853 6.6984 12.2955C6.6984 12.4057 6.65599 12.5117 6.57998 12.5915C6.50396 12.6712 6.40017 12.7187 6.2901 12.724ZM6.8611 11.01H5.7181C5.60804 11.0047 5.50424 10.9572 5.42822 10.8775C5.35221 10.7977 5.30981 10.6917 5.30981 10.5815C5.30981 10.4713 5.35221 10.3654 5.42822 10.2856C5.50424 10.2058 5.60804 10.1583 5.7181 10.153H6.8611C6.97117 10.1583 7.07496 10.2058 7.15098 10.2856C7.22699 10.3654 7.2694 10.4713 7.2694 10.5815C7.2694 10.6917 7.22699 10.7977 7.15098 10.8775C7.07496 10.9572 6.97117 11.0047 6.8611 11.01ZM8.8611 14.438H7.7181C7.66009 14.4408 7.60211 14.4318 7.54768 14.4115C7.49325 14.3913 7.44351 14.3602 7.40146 14.3201C7.35941 14.28 7.32593 14.2319 7.30306 14.1785C7.28019 14.1251 7.26839 14.0676 7.26839 14.0095C7.26839 13.9514 7.28019 13.894 7.30306 13.8406C7.32593 13.7872 7.35941 13.739 7.40146 13.6989C7.44351 13.6589 7.49325 13.6278 7.54768 13.6075C7.60211 13.5872 7.66009 13.5782 7.7181 13.581H8.8611C8.91911 13.5782 8.97709 13.5872 9.03152 13.6075C9.08595 13.6278 9.1357 13.6589 9.17775 13.6989C9.21979 13.739 9.25327 13.7872 9.27614 13.8406C9.29901 13.894 9.31081 13.9514 9.31081 14.0095C9.31081 14.0676 9.29901 14.1251 9.27614 14.1785C9.25327 14.2319 9.21979 14.28 9.17775 14.3201C9.1357 14.3602 9.08595 14.3913 9.03152 14.4115C8.97709 14.4318 8.91911 14.4408 8.8611 14.438ZM9.1471 12.724H8.0041C7.89404 12.7187 7.79024 12.6712 7.71422 12.5915C7.63821 12.5117 7.59581 12.4057 7.59581 12.2955C7.59581 12.1853 7.63821 12.0794 7.71422 11.9996C7.79024 11.9198 7.89404 11.8723 8.0041 11.867H9.1471C9.25717 11.8723 9.36096 11.9198 9.43698 11.9996C9.51299 12.0794 9.5554 12.1853 9.5554 12.2955C9.5554 12.4057 9.51299 12.5117 9.43698 12.5915C9.36096 12.6712 9.25717 12.7187 9.1471 12.724ZM9.7181 11.01H8.5751C8.46504 11.0047 8.36124 10.9572 8.28522 10.8775C8.20921 10.7977 8.16681 10.6917 8.16681 10.5815C8.16681 10.4713 8.20921 10.3654 8.28522 10.2856C8.36124 10.2058 8.46504 10.1583 8.5751 10.153H9.7181C9.82817 10.1583 9.93196 10.2058 10.008 10.2856C10.084 10.3654 10.1264 10.4713 10.1264 10.5815C10.1264 10.6917 10.084 10.7977 10.008 10.8775C9.93196 10.9572 9.82817 11.0047 9.7181 11.01ZM11.7181 14.438H10.5751C10.5171 14.4408 10.4591 14.4318 10.4047 14.4115C10.3503 14.3913 10.3005 14.3602 10.2585 14.3201C10.2164 14.28 10.1829 14.2319 10.1601 14.1785C10.1372 14.1251 10.1254 14.0676 10.1254 14.0095C10.1254 13.9514 10.1372 13.894 10.1601 13.8406C10.1829 13.7872 10.2164 13.739 10.2585 13.6989C10.3005 13.6589 10.3503 13.6278 10.4047 13.6075C10.4591 13.5872 10.5171 13.5782 10.5751 13.581H11.7181C11.7761 13.5782 11.8341 13.5872 11.8885 13.6075C11.943 13.6278 11.9927 13.6589 12.0347 13.6989C12.0768 13.739 12.1103 13.7872 12.1331 13.8406C12.156 13.894 12.1678 13.9514 12.1678 14.0095C12.1678 14.0676 12.156 14.1251 12.1331 14.1785C12.1103 14.2319 12.0768 14.28 12.0347 14.3201C11.9927 14.3602 11.943 14.3913 11.8885 14.4115C11.8341 14.4318 11.7761 14.4408 11.7181 14.438ZM12.0041 12.724H10.8611C10.751 12.7187 10.6472 12.6712 10.5712 12.5915C10.4952 12.5117 10.4528 12.4057 10.4528 12.2955C10.4528 12.1853 10.4952 12.0794 10.5712 11.9996C10.6472 11.9198 10.751 11.8723 10.8611 11.867H12.0041C12.1142 11.8723 12.218 11.9198 12.294 11.9996C12.37 12.0794 12.4124 12.1853 12.4124 12.2955C12.4124 12.4057 12.37 12.5117 12.294 12.5915C12.218 12.6712 12.1142 12.7187 12.0041 12.724ZM12.5751 11.01H11.4281C11.318 11.0047 11.2142 10.9572 11.1382 10.8775C11.0622 10.7977 11.0198 10.6917 11.0198 10.5815C11.0198 10.4713 11.0622 10.3654 11.1382 10.2856C11.2142 10.2058 11.318 10.1583 11.4281 10.153H12.5711C12.6812 10.1583 12.785 10.2058 12.861 10.2856C12.937 10.3654 12.9794 10.4713 12.9794 10.5815C12.9794 10.6917 12.937 10.7977 12.861 10.8775C12.785 10.9572 12.6812 11.0047 12.5711 11.01H12.5751ZM13.7181 11.867H14.8611C14.9712 11.8723 15.075 11.9198 15.151 11.9996C15.227 12.0794 15.2694 12.1853 15.2694 12.2955C15.2694 12.4057 15.227 12.5117 15.151 12.5915C15.075 12.6712 14.9712 12.7187 14.8611 12.724H13.7181C13.608 12.7187 13.5042 12.6712 13.4282 12.5915C13.3522 12.5117 13.3098 12.4057 13.3098 12.2955C13.3098 12.1853 13.3522 12.0794 13.4282 11.9996C13.5042 11.9198 13.608 11.8723 13.7181 11.867Z" fill="white"/>
<path d="M4.57617 16.152V17.295C4.57617 17.4088 4.62137 17.5179 4.70182 17.5984C4.78227 17.6788 4.89139 17.724 5.00517 17.724H12.1602C12.106 17.1969 12.1497 16.6643 12.2892 16.153L4.57617 16.152Z" fill="white"/>
<path d="M19.8601 5.43903H19.1731C19.2487 5.56934 19.2884 5.71737 19.2881 5.86802V14.1C19.7052 14.4757 20.0449 14.9291 20.2881 15.435V5.86802C20.2881 5.75441 20.243 5.64545 20.1628 5.56503C20.0825 5.4846 19.9737 5.43929 19.8601 5.43903Z" fill="white"/>
<path d="M16.4222 13.425C15.6593 13.425 14.9136 13.6512 14.2794 14.075C13.6451 14.4989 13.1507 15.1012 12.8588 15.806C12.5669 16.5108 12.4905 17.2863 12.6393 18.0345C12.7881 18.7827 13.1555 19.4699 13.6949 20.0093C14.2343 20.5487 14.9215 20.9161 15.6697 21.0649C16.4179 21.2137 17.1934 21.1373 17.8982 20.8454C18.603 20.5535 19.2053 20.0591 19.6292 19.4248C20.053 18.7906 20.2792 18.0449 20.2792 17.282C20.2792 16.7755 20.1794 16.274 19.9856 15.806C19.7918 15.338 19.5077 14.9128 19.1495 14.5547C18.7914 14.1965 18.3662 13.9124 17.8982 13.7186C17.4302 13.5248 16.9287 13.425 16.4222 13.425ZM16.8502 20.25V19.85C16.853 19.792 16.844 19.734 16.8237 19.6796C16.8034 19.6252 16.7723 19.5754 16.7323 19.5334C16.6922 19.4913 16.644 19.4578 16.5906 19.435C16.5373 19.4121 16.4798 19.4003 16.4217 19.4003C16.3636 19.4003 16.3061 19.4121 16.2528 19.435C16.1994 19.4578 16.1512 19.4913 16.1111 19.5334C16.0711 19.5754 16.0399 19.6252 16.0197 19.6796C15.9994 19.734 15.9904 19.792 15.9932 19.85V20.25C15.3528 20.1565 14.7597 19.8588 14.3021 19.4011C13.8444 18.9435 13.5467 18.3504 13.4532 17.71H13.8532C13.9112 17.7128 13.9692 17.7038 14.0236 17.6835C14.0781 17.6633 14.1278 17.6322 14.1698 17.5921C14.2119 17.552 14.2454 17.5038 14.2682 17.4504C14.2911 17.3971 14.3029 17.3396 14.3029 17.2815C14.3029 17.2234 14.2911 17.1659 14.2682 17.1125C14.2454 17.0592 14.2119 17.011 14.1698 16.9709C14.1278 16.9309 14.0781 16.8998 14.0236 16.8795C13.9692 16.8592 13.9112 16.8502 13.8532 16.853H13.4532C13.5467 16.2126 13.8444 15.6195 14.3021 15.1619C14.7597 14.7043 15.3528 14.4066 15.9932 14.313V14.713C15.9985 14.8231 16.046 14.9269 16.1258 15.0029C16.2055 15.0789 16.3115 15.1213 16.4217 15.1213C16.5319 15.1213 16.6379 15.0789 16.7176 15.0029C16.7974 14.9269 16.8449 14.8231 16.8502 14.713V14.313C17.4906 14.4066 18.0837 14.7043 18.5413 15.1619C18.999 15.6195 19.2967 16.2126 19.3902 16.853H18.9902C18.9322 16.8502 18.8742 16.8592 18.8198 16.8795C18.7653 16.8998 18.7156 16.9309 18.6736 16.9709C18.6315 17.011 18.598 17.0592 18.5751 17.1125C18.5523 17.1659 18.5405 17.2234 18.5405 17.2815C18.5405 17.3396 18.5523 17.3971 18.5751 17.4504C18.598 17.5038 18.6315 17.552 18.6736 17.5921C18.7156 17.6322 18.7653 17.6633 18.8198 17.6835C18.8742 17.7038 18.9322 17.7128 18.9902 17.71H19.3902C19.2969 18.3506 18.9992 18.9439 18.5416 19.4017C18.0839 19.8596 17.4907 20.1574 16.8502 20.251V20.25Z" fill="white"/>
<path d="M17.2611 15.837L16.3371 16.761L15.4701 16.328C15.3691 16.2825 15.2544 16.2779 15.15 16.3151C15.0456 16.3523 14.9597 16.4284 14.9102 16.5276C14.8607 16.6267 14.8515 16.7411 14.8844 16.8469C14.9174 16.9527 14.99 17.0416 15.0871 17.095L16.2301 17.666C16.3106 17.7063 16.4016 17.7202 16.4905 17.7059C16.5793 17.6915 16.6614 17.6496 16.7251 17.586L17.8681 16.443C17.9422 16.3614 17.9821 16.2545 17.9794 16.1443C17.9768 16.0341 17.9318 15.9292 17.8539 15.8512C17.7759 15.7733 17.671 15.7283 17.5608 15.7257C17.4506 15.723 17.3437 15.7629 17.2621 15.837H17.2611Z" fill="white"/>
</svg>
