<svg width="19" height="18" viewBox="0 0 19 18" fill="none" xmlns="http://www.w3.org/2000/svg">
<path d="M14.146 3.724C14.2561 3.71868 14.3599 3.67121 14.4359 3.59143C14.5119 3.51166 14.5543 3.40569 14.5543 3.29549C14.5543 3.1853 14.5119 3.07933 14.4359 2.99956C14.3599 2.91978 14.2561 2.87231 14.146 2.86699C13.9918 2.8672 13.8397 2.83174 13.7015 2.76339C13.5633 2.69505 13.4427 2.59566 13.3493 2.47301C13.2558 2.35036 13.192 2.20775 13.1628 2.05635C13.1336 1.90495 13.1398 1.74884 13.1809 1.60024C13.2221 1.45163 13.297 1.31455 13.3999 1.19971C13.5028 1.08486 13.6309 0.995369 13.7741 0.938219C13.9173 0.881069 14.0718 0.857811 14.2255 0.870262C14.3791 0.882714 14.5279 0.930536 14.66 1.00999H15.792C15.64 0.717691 15.4129 0.471108 15.1341 0.295549C14.8552 0.119991 14.5347 0.0217778 14.2054 0.0109902C13.8761 0.000202732 13.5498 0.0772287 13.2601 0.234163C12.9704 0.391098 12.7276 0.622291 12.5568 0.904017C12.3859 1.18574 12.2931 1.50786 12.2878 1.8373C12.2826 2.16675 12.3651 2.49167 12.5268 2.77871C12.6886 3.06576 12.9238 3.30459 13.2084 3.47071C13.4929 3.63683 13.8165 3.72425 14.146 3.724Z" fill="#B3B3B3"/>
<path d="M9.82309 3.724C9.88111 3.7268 9.93907 3.71779 9.9935 3.69752C10.0479 3.67725 10.0977 3.64615 10.1397 3.60608C10.1818 3.56601 10.2153 3.51783 10.2381 3.46444C10.261 3.41105 10.2728 3.35358 10.2728 3.29549C10.2728 3.23741 10.261 3.17994 10.2381 3.12655C10.2153 3.07316 10.1818 3.02498 10.1397 2.98491C10.0977 2.94485 10.0479 2.91374 9.9935 2.89347C9.93907 2.8732 9.88111 2.86419 9.82309 2.867C9.6689 2.8672 9.51675 2.83174 9.37853 2.76339C9.24031 2.69505 9.11977 2.59567 9.02632 2.47301C8.93288 2.35036 8.86906 2.20776 8.83986 2.05635C8.81067 1.90495 8.81687 1.74884 8.85801 1.60024C8.89914 1.45163 8.97408 1.31455 9.07697 1.19971C9.17986 1.08486 9.30792 0.99537 9.45113 0.93822C9.59434 0.88107 9.74884 0.857811 9.90253 0.870263C10.0562 0.882714 10.2049 0.930537 10.3371 1.01H11.4661C11.314 0.717729 11.087 0.471172 10.8082 0.295617C10.5294 0.120062 10.209 0.021829 9.87972 0.0109985C9.55045 0.000167944 9.22422 0.0771287 8.93451 0.233985C8.6448 0.390841 8.40203 0.621947 8.23111 0.90359C8.0602 1.18523 7.9673 1.50728 7.96192 1.83668C7.95654 2.16608 8.03889 2.49099 8.20052 2.77806C8.36215 3.06513 8.59724 3.30404 8.88167 3.47027C9.16611 3.6365 9.48963 3.72407 9.81908 3.724H9.82309Z" fill="#B3B3B3"/>
<path d="M16.8451 1.96799C16.8602 1.90504 16.8608 1.83947 16.847 1.77623C16.8331 1.71299 16.8052 1.6537 16.7651 1.60281C16.7251 1.55191 16.6741 1.51074 16.6159 1.48237C16.5577 1.454 16.4938 1.43917 16.4291 1.439H13.7701C13.6829 1.51561 13.6211 1.61699 13.5929 1.72962C13.5648 1.84226 13.5717 1.96079 13.6126 2.06942C13.6536 2.17805 13.7267 2.27162 13.8222 2.33765C13.9177 2.40367 14.031 2.43903 14.1471 2.439C14.3744 2.439 14.5924 2.52928 14.7531 2.69C14.9138 2.85072 15.0041 3.0687 15.0041 3.29599C15.0041 3.52328 14.9138 3.74127 14.7531 3.90199C14.5924 4.0627 14.3744 4.15299 14.1471 4.15299C13.8106 4.15326 13.4781 4.07916 13.1736 3.93599C12.869 3.79281 12.5998 3.5841 12.3853 3.32478C12.1708 3.06547 12.0163 2.76195 11.9327 2.43595C11.8492 2.10995 11.8387 1.76951 11.9021 1.439H9.4451C9.35787 1.51561 9.29608 1.61699 9.26794 1.72962C9.23981 1.84226 9.24668 1.96079 9.28763 2.06942C9.32859 2.17805 9.40168 2.27162 9.49717 2.33765C9.59265 2.40367 9.706 2.43903 9.82209 2.439C10.0494 2.439 10.2674 2.52928 10.4281 2.69C10.5888 2.85072 10.6791 3.0687 10.6791 3.29599C10.6791 3.52328 10.5888 3.74127 10.4281 3.90199C10.2674 4.0627 10.0494 4.15299 9.82209 4.15299C9.48556 4.15326 9.15312 4.07916 8.84856 3.93599C8.54399 3.79281 8.27484 3.5841 8.06033 3.32478C7.84583 3.06547 7.69128 2.76195 7.60774 2.43595C7.5242 2.10995 7.51374 1.76951 7.5771 1.439H5.1241C5.03687 1.51561 4.97507 1.61699 4.94694 1.72962C4.91881 1.84226 4.92568 1.96079 4.96663 2.06942C5.00759 2.17805 5.08068 2.27162 5.17617 2.33765C5.27165 2.40367 5.385 2.43903 5.50109 2.439C5.72839 2.439 5.94637 2.52928 6.10709 2.69C6.26781 2.85072 6.35809 3.0687 6.35809 3.29599C6.35809 3.52328 6.26781 3.74127 6.10709 3.90199C5.94637 4.0627 5.72839 4.15299 5.50109 4.15299C5.16456 4.15326 4.83212 4.07916 4.52756 3.93599C4.223 3.79281 3.95383 3.5841 3.73933 3.32478C3.52483 3.06547 3.37028 2.76195 3.28674 2.43595C3.2032 2.10995 3.19274 1.76951 3.2561 1.439H3.0051C2.90888 1.43898 2.81544 1.47131 2.73981 1.5308C2.66418 1.59029 2.61075 1.67347 2.5881 1.76699L1.9231 4.50999H16.2321L16.8451 1.96799Z" fill="#B3B3B3"/>
<path d="M5.50002 3.72399C5.61008 3.71868 5.71388 3.67121 5.7899 3.59143C5.86591 3.51165 5.90831 3.40569 5.90831 3.29549C5.90831 3.1853 5.86591 3.07933 5.7899 2.99956C5.71388 2.91978 5.61008 2.87231 5.50002 2.86699C5.34583 2.8672 5.19367 2.83174 5.05545 2.76339C4.91723 2.69505 4.79669 2.59566 4.70325 2.47301C4.60981 2.35036 4.54599 2.20775 4.5168 2.05635C4.4876 1.90495 4.49381 1.74884 4.53495 1.60024C4.57608 1.45163 4.65102 1.31455 4.75391 1.1997C4.8568 1.08486 4.98486 0.995368 5.12807 0.938218C5.27128 0.881068 5.42577 0.85781 5.57946 0.870261C5.73315 0.882712 5.88187 0.930537 6.01402 1.01H7.14602C6.99398 0.717729 6.76693 0.47117 6.48815 0.295615C6.20938 0.12006 5.88892 0.021829 5.55965 0.0109985C5.23038 0.000167944 4.90415 0.0771287 4.61444 0.233985C4.32473 0.390841 4.08197 0.621945 3.91105 0.903588C3.74014 1.18523 3.64723 1.50727 3.64185 1.83668C3.63647 2.16608 3.71882 2.49098 3.88045 2.77806C4.04208 3.06513 4.27717 3.30404 4.5616 3.47027C4.84604 3.6365 5.16957 3.72407 5.49902 3.72399H5.50002Z" fill="#B3B3B3"/>
<path d="M16.8601 9.75999V3.737L15.5481 9.14699C16.0171 9.27513 16.4609 9.48245 16.8601 9.75999Z" fill="#B3B3B3"/>
<path d="M14.4221 8.99699C14.659 8.99715 14.8955 9.01688 15.1291 9.05598L16.1291 4.939H1.8191L0.302102 11.195C0.28701 11.258 0.286363 11.3235 0.300211 11.3867C0.314059 11.45 0.342043 11.5093 0.382063 11.5602C0.422084 11.6111 0.473104 11.6522 0.531301 11.6806C0.589497 11.709 0.653359 11.7238 0.718101 11.724H10.4281C10.7427 10.9207 11.292 10.2308 12.0044 9.7444C12.7169 9.25795 13.5594 8.9975 14.4221 8.99699ZM12.2891 6.15298H13.4281C13.5382 6.1583 13.642 6.20578 13.718 6.28555C13.794 6.36533 13.8364 6.4713 13.8364 6.5815C13.8364 6.69169 13.794 6.79765 13.718 6.87743C13.642 6.9572 13.5382 7.00468 13.4281 7.00999H12.2891C12.179 7.00468 12.0752 6.9572 11.9992 6.87743C11.9232 6.79765 11.8808 6.69169 11.8808 6.5815C11.8808 6.4713 11.9232 6.36533 11.9992 6.28555C12.0752 6.20578 12.179 6.1583 12.2891 6.15298ZM4.0041 10.438H2.8611C2.80309 10.4408 2.74511 10.4318 2.69068 10.4115C2.63625 10.3912 2.58651 10.3601 2.54446 10.3201C2.50241 10.28 2.46893 10.2318 2.44606 10.1784C2.42319 10.125 2.4114 10.0676 2.4114 10.0095C2.4114 9.95141 2.42319 9.89393 2.44606 9.84055C2.46893 9.78716 2.50241 9.73898 2.54446 9.69891C2.58651 9.65885 2.63625 9.62774 2.69068 9.60747C2.74511 9.5872 2.80309 9.57819 2.8611 9.58099H4.0041C4.06211 9.57819 4.12009 9.5872 4.17452 9.60747C4.22895 9.62774 4.2787 9.65885 4.32074 9.69891C4.36279 9.73898 4.39627 9.78716 4.41914 9.84055C4.44201 9.89393 4.45381 9.95141 4.45381 10.0095C4.45381 10.0676 4.44201 10.125 4.41914 10.1784C4.39627 10.2318 4.36279 10.28 4.32074 10.3201C4.2787 10.3601 4.22895 10.3912 4.17452 10.4115C4.12009 10.4318 4.06211 10.4408 4.0041 10.438ZM4.2901 8.72398H3.1471C3.03704 8.71867 2.93324 8.67121 2.85722 8.59143C2.78121 8.51165 2.73881 8.40568 2.73881 8.29549C2.73881 8.18529 2.78121 8.07933 2.85722 7.99956C2.93324 7.91978 3.03704 7.87231 3.1471 7.86699H4.2901C4.40017 7.87231 4.50396 7.91978 4.57998 7.99956C4.65599 8.07933 4.6984 8.18529 4.6984 8.29549C4.6984 8.40568 4.65599 8.51165 4.57998 8.59143C4.50396 8.67121 4.40017 8.71867 4.2901 8.72398ZM4.8611 7.00999H3.7181C3.60804 7.00468 3.50424 6.9572 3.42822 6.87743C3.35221 6.79765 3.30981 6.69169 3.30981 6.5815C3.30981 6.4713 3.35221 6.36533 3.42822 6.28555C3.50424 6.20578 3.60804 6.1583 3.7181 6.15298H4.8611C4.97117 6.1583 5.07496 6.20578 5.15098 6.28555C5.22699 6.36533 5.2694 6.4713 5.2694 6.5815C5.2694 6.69169 5.22699 6.79765 5.15098 6.87743C5.07496 6.9572 4.97117 7.00468 4.8611 7.00999ZM6.8611 10.438H5.7181C5.66009 10.4408 5.60211 10.4318 5.54768 10.4115C5.49325 10.3912 5.44351 10.3601 5.40146 10.3201C5.35941 10.28 5.32593 10.2318 5.30306 10.1784C5.28019 10.125 5.26839 10.0676 5.26839 10.0095C5.26839 9.95141 5.28019 9.89393 5.30306 9.84055C5.32593 9.78716 5.35941 9.73898 5.40146 9.69891C5.44351 9.65885 5.49325 9.62774 5.54768 9.60747C5.60211 9.5872 5.66009 9.57819 5.7181 9.58099H6.8611C6.91911 9.57819 6.97709 9.5872 7.03152 9.60747C7.08595 9.62774 7.1357 9.65885 7.17775 9.69891C7.21979 9.73898 7.25327 9.78716 7.27614 9.84055C7.29901 9.89393 7.31081 9.95141 7.31081 10.0095C7.31081 10.0676 7.29901 10.125 7.27614 10.1784C7.25327 10.2318 7.21979 10.28 7.17775 10.3201C7.1357 10.3601 7.08595 10.3912 7.03152 10.4115C6.97709 10.4318 6.91911 10.4408 6.8611 10.438ZM7.1471 8.72398H6.0041C5.89404 8.71867 5.79024 8.67121 5.71422 8.59143C5.63821 8.51165 5.59581 8.40568 5.59581 8.29549C5.59581 8.18529 5.63821 8.07933 5.71422 7.99956C5.79024 7.91978 5.89404 7.87231 6.0041 7.86699H7.1471C7.25717 7.87231 7.36096 7.91978 7.43698 7.99956C7.51299 8.07933 7.5554 8.18529 7.5554 8.29549C7.5554 8.40568 7.51299 8.51165 7.43698 8.59143C7.36096 8.67121 7.25717 8.71867 7.1471 8.72398ZM7.7181 7.00999H6.5751C6.46504 7.00468 6.36124 6.9572 6.28522 6.87743C6.20921 6.79765 6.16681 6.69169 6.16681 6.5815C6.16681 6.4713 6.20921 6.36533 6.28522 6.28555C6.36124 6.20578 6.46504 6.1583 6.5751 6.15298H7.7181C7.82817 6.1583 7.93196 6.20578 8.00798 6.28555C8.08399 6.36533 8.12639 6.4713 8.12639 6.5815C8.12639 6.69169 8.08399 6.79765 8.00798 6.87743C7.93196 6.9572 7.82817 7.00468 7.7181 7.00999ZM9.7181 10.438H8.5751C8.51709 10.4408 8.45911 10.4318 8.40468 10.4115C8.35025 10.3912 8.30051 10.3601 8.25846 10.3201C8.21641 10.28 8.18293 10.2318 8.16006 10.1784C8.13719 10.125 8.1254 10.0676 8.1254 10.0095C8.1254 9.95141 8.13719 9.89393 8.16006 9.84055C8.18293 9.78716 8.21641 9.73898 8.25846 9.69891C8.30051 9.65885 8.35025 9.62774 8.40468 9.60747C8.45911 9.5872 8.51709 9.57819 8.5751 9.58099H9.7181C9.77611 9.57819 9.83409 9.5872 9.88852 9.60747C9.94295 9.62774 9.9927 9.65885 10.0347 9.69891C10.0768 9.73898 10.1103 9.78716 10.1331 9.84055C10.156 9.89393 10.1678 9.95141 10.1678 10.0095C10.1678 10.0676 10.156 10.125 10.1331 10.1784C10.1103 10.2318 10.0768 10.28 10.0347 10.3201C9.9927 10.3601 9.94295 10.3912 9.88852 10.4115C9.83409 10.4318 9.77611 10.4408 9.7181 10.438ZM10.0041 8.72398H8.8611C8.75104 8.71867 8.64724 8.67121 8.57122 8.59143C8.49521 8.51165 8.45281 8.40568 8.45281 8.29549C8.45281 8.18529 8.49521 8.07933 8.57122 7.99956C8.64724 7.91978 8.75104 7.87231 8.8611 7.86699H10.0041C10.1142 7.87231 10.218 7.91978 10.294 7.99956C10.37 8.07933 10.4124 8.18529 10.4124 8.29549C10.4124 8.40568 10.37 8.51165 10.294 8.59143C10.218 8.67121 10.1142 8.71867 10.0041 8.72398ZM10.5751 7.00999H9.4281C9.31804 7.00468 9.21424 6.9572 9.13822 6.87743C9.06221 6.79765 9.01981 6.69169 9.01981 6.5815C9.01981 6.4713 9.06221 6.36533 9.13822 6.28555C9.21424 6.20578 9.31804 6.1583 9.4281 6.15298H10.5711C10.6812 6.1583 10.785 6.20578 10.861 6.28555C10.937 6.36533 10.9794 6.4713 10.9794 6.5815C10.9794 6.69169 10.937 6.79765 10.861 6.87743C10.785 6.9572 10.6812 7.00468 10.5711 7.00999H10.5751ZM11.7181 7.86699H12.8611C12.9712 7.87231 13.075 7.91978 13.151 7.99956C13.227 8.07933 13.2694 8.18529 13.2694 8.29549C13.2694 8.40568 13.227 8.51165 13.151 8.59143C13.075 8.67121 12.9712 8.71867 12.8611 8.72398H11.7181C11.608 8.71867 11.5042 8.67121 11.4282 8.59143C11.3522 8.51165 11.3098 8.40568 11.3098 8.29549C11.3098 8.18529 11.3522 8.07933 11.4282 7.99956C11.5042 7.91978 11.608 7.87231 11.7181 7.86699Z" fill="#B3B3B3"/>
<path d="M2.57617 12.152V13.295C2.57617 13.4088 2.62137 13.5179 2.70182 13.5983C2.78227 13.6788 2.89139 13.724 3.00517 13.724H10.1602C10.106 13.1968 10.1497 12.6642 10.2892 12.153L2.57617 12.152Z" fill="#B3B3B3"/>
<path d="M17.8601 1.439H17.1731C17.2487 1.56931 17.2884 1.71734 17.2881 1.86799V10.1C17.7052 10.4756 18.0449 10.9291 18.2881 11.435V1.86799C18.2881 1.75438 18.243 1.64542 18.1628 1.56499C18.0825 1.48457 17.9737 1.43926 17.8601 1.439Z" fill="#B3B3B3"/>
<path d="M14.4222 9.425C13.6593 9.425 12.9136 9.65121 12.2794 10.075C11.6451 10.4988 11.1507 11.1012 10.8588 11.806C10.5669 12.5108 10.4905 13.2863 10.6393 14.0345C10.7881 14.7827 11.1555 15.4699 11.6949 16.0093C12.2343 16.5487 12.9215 16.9161 13.6697 17.0649C14.4179 17.2137 15.1934 17.1373 15.8982 16.8454C16.603 16.5535 17.2053 16.0591 17.6292 15.4248C18.053 14.7905 18.2792 14.0448 18.2792 13.282C18.2792 12.7755 18.1794 12.2739 17.9856 11.806C17.7918 11.338 17.5077 10.9128 17.1495 10.5547C16.7914 10.1965 16.3662 9.91241 15.8982 9.71858C15.4302 9.52475 14.9287 9.425 14.4222 9.425ZM14.8502 16.25V15.85C14.853 15.792 14.844 15.734 14.8237 15.6796C14.8034 15.6252 14.7723 15.5754 14.7323 15.5333C14.6922 15.4913 14.644 15.4578 14.5906 15.435C14.5373 15.4121 14.4798 15.4003 14.4217 15.4003C14.3636 15.4003 14.3061 15.4121 14.2528 15.435C14.1994 15.4578 14.1512 15.4913 14.1111 15.5333C14.0711 15.5754 14.0399 15.6252 14.0197 15.6796C13.9994 15.734 13.9904 15.792 13.9932 15.85V16.25C13.3528 16.1565 12.7597 15.8587 12.3021 15.4011C11.8444 14.9435 11.5467 14.3504 11.4532 13.71H11.8532C11.9112 13.7128 11.9692 13.7038 12.0236 13.6835C12.0781 13.6632 12.1278 13.6322 12.1698 13.5921C12.2119 13.552 12.2454 13.5038 12.2682 13.4504C12.2911 13.397 12.3029 13.3396 12.3029 13.2815C12.3029 13.2234 12.2911 13.1659 12.2682 13.1125C12.2454 13.0591 12.2119 13.011 12.1698 12.9709C12.1278 12.9308 12.0781 12.8997 12.0236 12.8795C11.9692 12.8592 11.9112 12.8502 11.8532 12.853H11.4532C11.5467 12.2126 11.8444 11.6195 12.3021 11.1619C12.7597 10.7043 13.3528 10.4065 13.9932 10.313V10.713C13.9985 10.8231 14.046 10.9269 14.1258 11.0029C14.2055 11.0789 14.3115 11.1213 14.4217 11.1213C14.5319 11.1213 14.6379 11.0789 14.7176 11.0029C14.7974 10.9269 14.8449 10.8231 14.8502 10.713V10.313C15.4906 10.4065 16.0837 10.7043 16.5413 11.1619C16.999 11.6195 17.2967 12.2126 17.3902 12.853H16.9902C16.9322 12.8502 16.8742 12.8592 16.8198 12.8795C16.7653 12.8997 16.7156 12.9308 16.6736 12.9709C16.6315 13.011 16.598 13.0591 16.5751 13.1125C16.5523 13.1659 16.5405 13.2234 16.5405 13.2815C16.5405 13.3396 16.5523 13.397 16.5751 13.4504C16.598 13.5038 16.6315 13.552 16.6736 13.5921C16.7156 13.6322 16.7653 13.6632 16.8198 13.6835C16.8742 13.7038 16.9322 13.7128 16.9902 13.71H17.3902C17.2969 14.3506 16.9992 14.9439 16.5416 15.4017C16.0839 15.8595 15.4907 16.1574 14.8502 16.251V16.25Z" fill="#B3B3B3"/>
<path d="M15.2611 11.837L14.3371 12.761L13.4701 12.328C13.3691 12.2825 13.2544 12.2779 13.15 12.3151C13.0456 12.3523 12.9597 12.4284 12.9102 12.5275C12.8607 12.6267 12.8515 12.7411 12.8844 12.8469C12.9174 12.9526 12.99 13.0416 13.0871 13.095L14.2301 13.666C14.3106 13.7063 14.4016 13.7202 14.4905 13.7058C14.5793 13.6915 14.6614 13.6496 14.7251 13.586L15.8681 12.443C15.9422 12.3614 15.9821 12.2544 15.9794 12.1443C15.9768 12.0341 15.9318 11.9291 15.8539 11.8512C15.7759 11.7733 15.671 11.7283 15.5608 11.7256C15.4506 11.723 15.3437 11.7629 15.2621 11.837H15.2611Z" fill="#B3B3B3"/>
</svg>
