<svg width="86" height="97" viewBox="0 0 86 97" fill="none" xmlns="http://www.w3.org/2000/svg">
<g filter="url(#filter0_d_50_119)">
<path d="M46 24.0039H30C24.4772 24.0039 20 28.4811 20 34.0039V50.0039C20 55.5268 24.4772 60.0039 30 60.0039H46C51.5228 60.0039 56 55.5268 56 50.0039V34.0039C56 28.4811 51.5228 24.0039 46 24.0039Z" fill="white"/>
</g>
<path d="M39.3738 42.8583L44.5798 37.6583C44.7553 37.4718 44.8511 37.2243 44.847 36.9683C44.843 36.7123 44.7393 36.468 44.558 36.2872C44.3767 36.1064 44.132 36.0034 43.876 36.0001C43.62 35.9967 43.3728 36.0933 43.1868 36.2693L37.2868 42.1633C37.1083 42.3421 37.0056 42.5829 37.0002 42.8355C36.9948 43.0881 37.0871 43.333 37.2578 43.5193L43.1808 49.4543C43.3668 49.6303 43.614 49.7269 43.87 49.7235C44.126 49.7202 44.3707 49.6172 44.552 49.4364C44.7333 49.2556 44.837 49.0113 44.841 48.7553C44.8451 48.4993 44.7493 48.2518 44.5738 48.0653L39.3738 42.8583Z" fill="#A3AC30"/>
<path d="M36.4734 42.8583L31.2674 37.6583C31.0919 37.4718 30.996 37.2243 31.0001 36.9683C31.0042 36.7123 31.1079 36.468 31.2892 36.2872C31.4705 36.1064 31.7151 36.0034 31.9711 36.0001C32.2272 35.9967 32.4744 36.0933 32.6604 36.2693L38.5604 42.1633C38.7389 42.3421 38.8415 42.5829 38.8469 42.8355C38.8523 43.0881 38.7601 43.333 38.5894 43.5193L32.6664 49.4543C32.4804 49.6303 32.2332 49.7269 31.9771 49.7235C31.7211 49.7202 31.4765 49.6172 31.2952 49.4364C31.1139 49.2556 31.0102 49.0113 31.0061 48.7553C31.002 48.4993 31.0979 48.2518 31.2734 48.0653L36.4734 42.8583Z" fill="#A3AC30"/>
<defs>
<filter id="filter0_d_50_119" x="-10" y="0.00390625" width="96" height="96" filterUnits="userSpaceOnUse" color-interpolation-filters="sRGB">
<feFlood flood-opacity="0" result="BackgroundImageFix"/>
<feColorMatrix in="SourceAlpha" type="matrix" values="0 0 0 0 0 0 0 0 0 0 0 0 0 0 0 0 0 0 127 0" result="hardAlpha"/>
<feOffset dy="6"/>
<feGaussianBlur stdDeviation="15"/>
<feColorMatrix type="matrix" values="0 0 0 0 0.329412 0 0 0 0 0.27451 0 0 0 0 0.403922 0 0 0 0.102 0"/>
<feBlend mode="normal" in2="BackgroundImageFix" result="effect1_dropShadow_50_119"/>
<feBlend mode="normal" in="SourceGraphic" in2="effect1_dropShadow_50_119" result="shape"/>
</filter>
</defs>
</svg>
