<svg width="34" height="34" viewBox="0 0 34 34" fill="none" xmlns="http://www.w3.org/2000/svg">
<path d="M34 17C34 26.389 26.389 34 17 34C7.61104 34 0 26.389 0 17C0 7.61104 7.61104 0 17 0C26.389 0 34 7.61104 34 17Z" fill="#FFC5CA"/>
<path d="M24.6765 12.1V21.9644C24.6765 22.6016 24.1616 23.1164 23.5244 23.1164H9.12396C8.48674 23.1164 7.97192 22.6016 7.97192 21.9644V12.1C7.97192 11.4628 8.48674 10.948 9.12396 10.948H23.5244C24.1616 10.948 24.6765 11.4628 24.6765 12.1Z" fill="#FE4F60"/>
<path d="M24.6765 12.1V12.9929C24.6765 13.3313 24.3885 13.5689 24.1292 13.5689C18.0811 13.8677 13.3577 17.4894 11.3812 22.7456C11.2984 22.9688 11.0824 23.12 10.8412 23.12H9.12396C8.48674 23.12 7.97192 22.6052 7.97192 21.968V12.1C7.97192 11.4628 8.48674 10.948 9.12396 10.948H23.5244C24.1616 10.948 24.6765 11.4628 24.6765 12.1Z" fill="#FF6D7A"/>
<path d="M7.97217 13.5404H24.6767V15.9885H7.97217V13.5404Z" fill="#42434D"/>
<path d="M24.2807 13.5404C23.9243 13.6556 20.371 13.4792 16.6737 15.9813C16.6593 15.9921 17.0661 15.9885 7.97217 15.9885V13.5404H24.2807Z" fill="#4D4E59"/>
<path d="M12.7245 18.9763H10.3124C10.154 18.9763 10.0244 18.8467 10.0244 18.6883C10.0244 18.5299 10.154 18.4003 10.3124 18.4003H12.7245C12.8829 18.4003 13.0125 18.5299 13.0125 18.6883C13.0125 18.8467 12.8829 18.9763 12.7245 18.9763Z" fill="white"/>
<path d="M12.724 20.7766H10.3119C10.1535 20.7766 10.0239 20.647 10.0239 20.4886C10.0239 20.3302 10.1535 20.2006 10.3119 20.2006H12.724C12.8824 20.2006 13.012 20.3302 13.012 20.4886C13.012 20.647 12.8824 20.7766 12.724 20.7766Z" fill="white"/>
</svg>
