<svg width="32" height="32" viewBox="0 0 32 32" fill="none" xmlns="http://www.w3.org/2000/svg">
<path d="M0 2C0 0.895431 0.895431 0 2 0H30C31.1046 0 32 0.895431 32 2V17C32 25.2843 25.2843 32 17 32H2C0.895431 32 0 31.1046 0 30V2Z" fill="#BADA55"/>
<path d="M13.8181 23.1365C14.2198 23.1365 14.5454 22.8109 14.5454 22.4092C14.5454 22.0076 14.2198 21.6819 13.8181 21.6819C13.4164 21.6819 13.0908 22.0076 13.0908 22.4092C13.0908 22.8109 13.4164 23.1365 13.8181 23.1365Z" stroke="white" stroke-width="2" stroke-linecap="round" stroke-linejoin="round"/>
<path d="M21.8181 23.1365C22.2198 23.1365 22.5454 22.8109 22.5454 22.4092C22.5454 22.0076 22.2198 21.6819 21.8181 21.6819C21.4164 21.6819 21.0908 22.0076 21.0908 22.4092C21.0908 22.8109 21.4164 23.1365 21.8181 23.1365Z" stroke="white" stroke-width="2" stroke-linecap="round" stroke-linejoin="round"/>
<path d="M8 7.86377H10.9091L12.8582 17.602C12.9247 17.9368 13.1068 18.2376 13.3728 18.4516C13.6387 18.6657 13.9714 18.7794 14.3127 18.7729H21.3818C21.7231 18.7794 22.0559 18.6657 22.3218 18.4516C22.5877 18.2376 22.7699 17.9368 22.8364 17.602L24 11.5001H11.6364" stroke="white" stroke-width="2" stroke-linecap="round" stroke-linejoin="round"/>
</svg>
