<svg width="35" height="35" viewBox="0 0 35 35" fill="none" xmlns="http://www.w3.org/2000/svg">
<path d="M35 17.5C35 27.1651 27.1651 35 17.5 35C7.83489 35 0 27.1651 0 17.5C0 7.83489 7.83489 0 17.5 0C27.1651 0 35 7.83489 35 17.5Z" fill="#E3FFD7"/>
<path d="M22.8196 17.4999L25.8996 14.4199L20.5796 9.09985L12.1796 17.4999" fill="#78B75B"/>
<path d="M14.6997 17.4996C14.6997 16.7831 14.973 16.0666 15.5198 15.5198C16.6132 14.4264 18.3862 14.4264 19.4796 15.5198C20.0264 16.0666 20.2997 16.7831 20.2997 17.4996" fill="#669E4F"/>
<path d="M19.4114 17.8955C19.4114 17.5964 19.2949 17.315 19.0833 17.1033C18.6605 16.6803 17.9224 16.6803 17.4999 17.1033L16.7077 16.3112C16.9264 16.0931 17.2812 16.0934 17.4999 16.3115L17.8955 15.9153C17.4593 15.4791 16.7486 15.4788 16.3118 15.9153L16.1139 15.7173L15.7177 16.1135L15.9159 16.3118C15.7042 16.5232 15.588 16.8043 15.588 17.1036C15.5877 17.4027 15.7045 17.6841 15.9162 17.8957C16.1276 18.1071 16.409 18.2236 16.708 18.2236C17.0071 18.2236 17.2882 18.1071 17.4996 17.8957L18.2917 18.6879C18.073 18.906 17.7183 18.9057 17.4996 18.6876L17.1039 19.0838C17.3221 19.3019 17.6091 19.4111 17.8958 19.4111C18.1825 19.4111 18.4692 19.3019 18.6876 19.0838L18.8856 19.2817L19.2818 18.8855L19.0835 18.6873C19.2949 18.4756 19.4114 18.1945 19.4114 17.8955ZM17.1034 17.4995C16.8923 17.7109 16.5229 17.7109 16.3118 17.4995C16.206 17.3937 16.1475 17.2531 16.1477 17.1036C16.1477 16.9541 16.206 16.8135 16.3115 16.7077L17.1034 17.4995ZM17.8958 17.4993C18.1069 17.2879 18.4762 17.2879 18.6873 17.4993C18.7932 17.6051 18.8514 17.7457 18.8514 17.8952C18.8514 18.0447 18.7932 18.1853 18.6876 18.2911L17.8958 17.4993Z" fill="#78B75B"/>
<path d="M22.0419 16.9175L21.6457 16.5213L23.8235 14.3434L20.6556 11.1758L18.4777 13.3536L18.0815 12.9574L20.4573 10.5816C20.5668 10.4724 20.7441 10.4722 20.8535 10.5816L24.4177 14.1455C24.4703 14.1981 24.4994 14.2692 24.4994 14.3434C24.4994 14.4179 24.4703 14.489 24.4177 14.5417L22.0419 16.9175Z" fill="#669E4F"/>
<path d="M20.8607 15.725L21.2566 15.3285L21.6531 15.7244L21.2572 16.1209L20.8607 15.725Z" fill="#96CC7F"/>
<path d="M21.6447 14.9412L22.0406 14.5452L22.4368 14.9414L22.0408 15.3373L21.6447 14.9412Z" fill="#96CC7F"/>
<path d="M18.88 13.7495L19.2765 13.3536L19.6722 13.7499L19.2757 14.1458L18.88 13.7495Z" fill="#96CC7F"/>
<path d="M19.6648 12.96L20.0608 12.564L20.457 12.9602L20.061 13.3561L19.6648 12.96Z" fill="#96CC7F"/>
<path d="M9.09985 17.4998H25.8999V24.7798H9.09985V17.4998Z" fill="#96CC7F"/>
<path d="M17.4997 23.9398C19.0461 23.9398 20.2997 22.6862 20.2997 21.1398C20.2997 19.5934 19.0461 18.3398 17.4997 18.3398C15.9533 18.3398 14.6997 19.5934 14.6997 21.1398C14.6997 22.6862 15.9533 23.9398 17.4997 23.9398Z" fill="#78B75B"/>
<path d="M13.2999 24.7795L14.4199 25.8995L15.5399 24.7795" fill="#78B75B"/>
<path d="M17.7798 20.8599H17.7792V19.7399H17.7798C18.0883 19.7399 18.3392 19.9911 18.3392 20.2999H18.8992C18.8992 19.6822 18.3969 19.1799 17.7798 19.1799H17.7792V18.8999H17.2195V19.1799C16.6018 19.1799 16.0995 19.6822 16.0995 20.2999C16.0995 20.9173 16.6018 21.4196 17.2195 21.4196V22.5396C16.9104 22.5396 16.6595 22.2885 16.6595 21.9796L16.0995 21.9799C16.0995 22.5973 16.6018 23.0996 17.2195 23.0996V23.3796H17.7792V23.0996H17.7798C18.3969 23.0996 18.8992 22.5973 18.8992 21.9796C18.8992 21.3619 18.3969 20.8599 17.7798 20.8599ZM16.6595 20.2999C16.6595 19.9911 16.9104 19.7399 17.2195 19.7399V20.8599C16.9106 20.8599 16.6595 20.6085 16.6595 20.2999ZM17.7798 22.5396H17.7792V21.4196H17.7798C18.0883 21.4196 18.3392 21.6708 18.3392 21.9799C18.3392 22.2885 18.0883 22.5396 17.7798 22.5396Z" fill="#669E4F"/>
<path d="M24.7794 23.9396H21.4197V23.3796H24.4994V18.8998H21.4197V18.3398H24.7794C24.9342 18.3398 25.0594 18.465 25.0594 18.6198V23.6598C25.0594 23.8144 24.9342 23.9396 24.7794 23.9396Z" fill="#669E4F"/>
<path d="M13.5798 23.9398H10.2201C10.0652 23.9398 9.94006 23.8144 9.94006 23.6598V18.6198C9.94006 18.465 10.0652 18.3398 10.2198 18.3398H13.5798L13.5801 18.8998H10.5001V23.3798H13.5798V23.9398Z" fill="#669E4F"/>
<path d="M21.4197 22.2599H21.9794V22.8199H21.4197V22.2599Z" fill="#78B75B"/>
<path d="M22.5397 22.2599H23.0994V22.8199H22.5397V22.2599Z" fill="#78B75B"/>
<path d="M21.4197 19.4598H21.9794V20.0198H21.4197V19.4598Z" fill="#78B75B"/>
<path d="M22.5397 19.4598H23.0994V20.0198H22.5397V19.4598Z" fill="#78B75B"/>
<path d="M11.8998 19.4598H12.4595V20.0198H11.8998V19.4598Z" fill="#78B75B"/>
<path d="M13.0198 19.4598H13.5795V20.0198H13.0198V19.4598Z" fill="#78B75B"/>
<path d="M11.8998 22.2599H12.4595V22.8199H11.8998V22.2599Z" fill="#78B75B"/>
<path d="M13.0198 22.2599H13.5795V22.8199H13.0198V22.2599Z" fill="#78B75B"/>
</svg>
