<svg width="336" height="56" viewBox="0 0 336 56" fill="none" xmlns="http://www.w3.org/2000/svg">
<rect x="0.5" y="0.5" width="335" height="55" rx="14.5" fill="#BADA55" fill-opacity="0.1" stroke="#BADA55"/>
<path d="M102.943 26.1477C102.545 23.6591 100.597 22.2045 98.1364 22.2045C95.125 22.2045 92.9034 24.4602 92.9034 28.1818C92.9034 31.9034 95.1136 34.1591 98.1364 34.1591C100.693 34.1591 102.562 32.5568 102.943 30.2557L101.17 30.25C100.869 31.7386 99.6193 32.5568 98.1477 32.5568C96.1534 32.5568 94.6477 31.0284 94.6477 28.1818C94.6477 25.358 96.1477 23.8068 98.1534 23.8068C99.6364 23.8068 100.881 24.642 101.17 26.1477H102.943ZM106.607 28.8182C106.607 27.4261 107.487 26.6307 108.697 26.6307C109.868 26.6307 110.567 27.375 110.567 28.6534V34H112.266V28.4489C112.266 26.2727 111.072 25.1591 109.277 25.1591C107.919 25.1591 107.101 25.75 106.692 26.6932H106.584V22.3636H104.908V34H106.607V28.8182ZM118.209 34.1761C120.669 34.1761 122.277 32.375 122.277 29.6761C122.277 26.9602 120.669 25.1591 118.209 25.1591C115.749 25.1591 114.141 26.9602 114.141 29.6761C114.141 32.375 115.749 34.1761 118.209 34.1761ZM118.214 32.75C116.607 32.75 115.857 31.3466 115.857 29.6705C115.857 28 116.607 26.5795 118.214 26.5795C119.811 26.5795 120.561 28 120.561 29.6705C120.561 31.3466 119.811 32.75 118.214 32.75ZM127.849 34.1761C130.31 34.1761 131.918 32.375 131.918 29.6761C131.918 26.9602 130.31 25.1591 127.849 25.1591C125.389 25.1591 123.781 26.9602 123.781 29.6761C123.781 32.375 125.389 34.1761 127.849 34.1761ZM127.855 32.75C126.247 32.75 125.497 31.3466 125.497 29.6705C125.497 28 126.247 26.5795 127.855 26.5795C129.452 26.5795 130.202 28 130.202 29.6705C130.202 31.3466 129.452 32.75 127.855 32.75ZM140.354 27.4034C140.001 26.0455 138.939 25.1591 137.053 25.1591C135.081 25.1591 133.683 26.1989 133.683 27.7443C133.683 28.983 134.433 29.8068 136.07 30.1705L137.547 30.4943C138.388 30.6818 138.78 31.0568 138.78 31.6023C138.78 32.2784 138.058 32.8068 136.945 32.8068C135.928 32.8068 135.274 32.3693 135.07 31.5114L133.428 31.7614C133.712 33.3068 134.996 34.1761 136.956 34.1761C139.064 34.1761 140.524 33.0568 140.524 31.4773C140.524 30.2443 139.74 29.483 138.138 29.1136L136.751 28.7955C135.791 28.5682 135.376 28.2443 135.382 27.6534C135.376 26.983 136.104 26.5057 137.07 26.5057C138.126 26.5057 138.615 27.0909 138.814 27.6761L140.354 27.4034ZM146.153 34.1761C148.057 34.1761 149.403 33.2386 149.79 31.8182L148.182 31.5284C147.875 32.3523 147.136 32.7727 146.17 32.7727C144.716 32.7727 143.739 31.8295 143.693 30.1477H149.898V29.5455C149.898 26.392 148.011 25.1591 146.034 25.1591C143.602 25.1591 142 27.0114 142 29.6932C142 32.4034 143.58 34.1761 146.153 34.1761ZM143.699 28.875C143.767 27.6364 144.665 26.5625 146.045 26.5625C147.364 26.5625 148.227 27.5398 148.233 28.875H143.699ZM157.091 37.2727C158.494 37.2727 159.381 36.5398 159.886 35.1648L163.494 25.2898L161.659 25.2727L159.449 32.0455H159.358L157.148 25.2727H155.33L158.523 34.1136L158.312 34.6932C157.881 35.8523 157.273 35.9489 156.341 35.6932L155.932 37.0852C156.136 37.1761 156.58 37.2727 157.091 37.2727ZM168.459 34.1761C170.919 34.1761 172.527 32.375 172.527 29.6761C172.527 26.9602 170.919 25.1591 168.459 25.1591C165.999 25.1591 164.391 26.9602 164.391 29.6761C164.391 32.375 165.999 34.1761 168.459 34.1761ZM168.464 32.75C166.857 32.75 166.107 31.3466 166.107 29.6705C166.107 28 166.857 26.5795 168.464 26.5795C170.061 26.5795 170.811 28 170.811 29.6705C170.811 31.3466 170.061 32.75 168.464 32.75ZM179.952 30.3807C179.957 31.8636 178.855 32.5682 177.901 32.5682C176.849 32.5682 176.122 31.8068 176.122 30.6193V25.2727H174.423V30.8239C174.423 32.9886 175.611 34.1136 177.287 34.1136C178.599 34.1136 179.491 33.4205 179.895 32.4886H179.986V34H181.656V25.2727H179.952V30.3807ZM183.939 34H185.638V28.6705C185.638 27.5284 186.518 26.7045 187.723 26.7045C188.075 26.7045 188.473 26.767 188.609 26.8068V25.1818C188.439 25.1591 188.104 25.142 187.888 25.142C186.865 25.142 185.99 25.7216 185.672 26.6591H185.581V25.2727H183.939V34ZM194.45 34H196.109V32.642H196.251C196.558 33.1989 197.183 34.1705 198.774 34.1705C200.888 34.1705 202.422 32.4773 202.422 29.6534C202.422 26.8239 200.865 25.1591 198.757 25.1591C197.138 25.1591 196.553 26.1477 196.251 26.6875H196.149V22.3636H194.45V34ZM196.115 29.6364C196.115 27.8125 196.911 26.6023 198.393 26.6023C199.933 26.6023 200.706 27.9034 200.706 29.6364C200.706 31.3864 199.911 32.7216 198.393 32.7216C196.933 32.7216 196.115 31.4716 196.115 29.6364ZM206.869 34.1932C208.312 34.1932 209.125 33.4602 209.449 32.8068H209.517V34H211.176V28.2045C211.176 25.6648 209.176 25.1591 207.79 25.1591C206.21 25.1591 204.756 25.7955 204.188 27.3864L205.784 27.75C206.034 27.1307 206.67 26.5341 207.812 26.5341C208.909 26.5341 209.472 27.108 209.472 28.0966V28.1364C209.472 28.7557 208.835 28.7443 207.267 28.9261C205.614 29.1193 203.92 29.5511 203.92 31.5341C203.92 33.25 205.21 34.1932 206.869 34.1932ZM207.239 32.8295C206.278 32.8295 205.585 32.3977 205.585 31.5568C205.585 30.6477 206.392 30.3239 207.375 30.1932C207.926 30.1193 209.233 29.9716 209.477 29.7273V30.8523C209.477 31.8864 208.653 32.8295 207.239 32.8295ZM213.439 34H215.138V28.6705C215.138 27.5284 216.018 26.7045 217.223 26.7045C217.575 26.7045 217.973 26.767 218.109 26.8068V25.1818C217.939 25.1591 217.604 25.142 217.388 25.142C216.365 25.142 215.49 25.7216 215.172 26.6591H215.081V25.2727H213.439V34ZM219.716 34H221.375V32.642H221.517C221.824 33.1989 222.449 34.1705 224.04 34.1705C226.153 34.1705 227.688 32.4773 227.688 29.6534C227.688 26.8239 226.131 25.1591 224.023 25.1591C222.403 25.1591 221.818 26.1477 221.517 26.6875H221.415V22.3636H219.716V34ZM221.381 29.6364C221.381 27.8125 222.176 26.6023 223.659 26.6023C225.199 26.6023 225.972 27.9034 225.972 29.6364C225.972 31.3864 225.176 32.7216 223.659 32.7216C222.199 32.7216 221.381 31.4716 221.381 29.6364ZM233.357 34.1761C235.26 34.1761 236.607 33.2386 236.993 31.8182L235.385 31.5284C235.078 32.3523 234.339 32.7727 233.374 32.7727C231.919 32.7727 230.942 31.8295 230.896 30.1477H237.101V29.5455C237.101 26.392 235.214 25.1591 233.237 25.1591C230.805 25.1591 229.203 27.0114 229.203 29.6932C229.203 32.4034 230.783 34.1761 233.357 34.1761ZM230.902 28.875C230.97 27.6364 231.868 26.5625 233.249 26.5625C234.567 26.5625 235.43 27.5398 235.436 28.875H230.902ZM238.986 34H240.685V28.6705C240.685 27.5284 241.565 26.7045 242.77 26.7045C243.122 26.7045 243.52 26.767 243.656 26.8068V25.1818C243.486 25.1591 243.151 25.142 242.935 25.142C241.912 25.142 241.037 25.7216 240.719 26.6591H240.628V25.2727H238.986V34Z" fill="#BADA55"/>
</svg>
