<svg width="13" height="13" viewBox="0 0 13 13" fill="none" xmlns="http://www.w3.org/2000/svg">
<path fill-rule="evenodd" clip-rule="evenodd" d="M6.65112 1C9.76715 1 12.3022 3.53509 12.3022 6.65112C12.3022 9.76715 9.76715 12.3022 6.65112 12.3022C3.53509 12.3022 1 9.76715 1 6.65112C1 3.53509 3.53509 1 6.65112 1ZM6.65112 1.84767C4.00244 1.84767 1.84767 4.00244 1.84767 6.65112C1.84767 9.2998 4.00244 11.4546 6.65112 11.4546C9.2998 11.4546 11.4546 9.2998 11.4546 6.65112C11.4546 4.00244 9.2998 1.84767 6.65112 1.84767ZM6.45966 3.87947C6.69418 3.87947 6.8835 4.06935 6.8835 4.30331V6.80223L8.8077 7.94941C9.00832 8.06978 9.07444 8.32973 8.95463 8.53091C8.87495 8.66371 8.73424 8.73774 8.59014 8.73774C8.51611 8.73774 8.44151 8.71853 8.37313 8.67841L6.24266 7.40747C6.11494 7.33061 6.03583 7.19216 6.03583 7.04297V4.30331C6.03583 4.06935 6.22571 3.87947 6.45966 3.87947Z" fill="#A3AC30" stroke="#A3AC30" stroke-width="0.6"/>
</svg>
