<svg width="13" height="14" viewBox="0 0 13 14" fill="none" xmlns="http://www.w3.org/2000/svg">
<path d="M12.7269 6.88802L7.05591 1.21802C6.9805 1.14252 6.89095 1.08262 6.79237 1.04176C6.69379 1.00089 6.58813 0.979858 6.48141 0.979858C6.3747 0.979858 6.26904 1.00089 6.17046 1.04176C6.07188 1.08262 5.98233 1.14252 5.90691 1.21802L0.237915 6.88802C0.162415 6.96343 0.10252 7.05299 0.0616548 7.15156C0.0207897 7.25014 -0.000244141 7.35581 -0.000244141 7.46252C-0.000244141 7.56923 0.0207897 7.67489 0.0616548 7.77347C0.10252 7.87205 0.162415 7.9616 0.237915 8.03702L5.90791 13.707C5.98333 13.7825 6.07288 13.8424 6.17146 13.8833C6.27004 13.9241 6.3757 13.9452 6.48241 13.9452C6.58913 13.9452 6.69479 13.9241 6.79337 13.8833C6.89195 13.8424 6.9815 13.7825 7.05691 13.707L12.7269 8.03702C12.8024 7.9616 12.8623 7.87205 12.9032 7.77347C12.944 7.67489 12.9651 7.56923 12.9651 7.46252C12.9651 7.35581 12.944 7.25014 12.9032 7.15156C12.8623 7.05299 12.8024 6.96343 12.7269 6.88802ZM10.1699 7.20602L8.03691 9.17402C8.00842 9.20199 7.9722 9.22079 7.93292 9.228C7.89365 9.23521 7.85311 9.23049 7.81654 9.21447C7.77997 9.19844 7.74903 9.17183 7.72771 9.13807C7.70639 9.1043 7.69566 9.06493 7.69691 9.02502V7.66502H5.26691V9.28502C5.26691 9.33806 5.24584 9.38893 5.20834 9.42644C5.17083 9.46395 5.11996 9.48502 5.06691 9.48502H4.25691C4.20387 9.48502 4.153 9.46395 4.11549 9.42644C4.07799 9.38893 4.05691 9.33806 4.05691 9.28502V7.26002C4.05691 7.04519 4.14225 6.83917 4.29416 6.68726C4.44606 6.53536 4.65209 6.45002 4.86691 6.45002H7.69991V5.08902C7.69866 5.04911 7.70939 5.00973 7.73071 4.97597C7.75203 4.9422 7.78297 4.9156 7.81954 4.89957C7.85611 4.88354 7.89665 4.87883 7.93592 4.88604C7.9752 4.89324 8.01142 4.91205 8.03991 4.94002L10.1699 6.90802C10.1912 6.92679 10.2082 6.94987 10.2199 6.97573C10.2316 7.00159 10.2376 7.02964 10.2376 7.05802C10.2376 7.08639 10.2316 7.11444 10.2199 7.1403C10.2082 7.16617 10.1912 7.18925 10.1699 7.20802V7.20602Z" fill="#BADA55"/>
</svg>
