<svg width="40" height="40" viewBox="0 0 40 40" fill="none" xmlns="http://www.w3.org/2000/svg">
<rect width="40" height="40" rx="8" fill="#BADA55"/>
<path d="M26.647 22.4113C28.4421 22.4113 29.896 23.8408 29.896 25.6044C29.896 27.367 28.4421 28.7964 26.647 28.7964C24.8529 28.7964 23.3979 27.367 23.3979 25.6044C23.3979 23.8408 24.8529 22.4113 26.647 22.4113ZM18.6371 24.2427C19.4234 24.2427 20.0616 24.8697 20.0616 25.6422C20.0616 26.4137 19.4234 27.0418 18.6371 27.0418H12.4245C11.6383 27.0418 11 26.4137 11 25.6422C11 24.8697 11.6383 24.2427 12.4245 24.2427H18.6371ZM14.249 12C16.0442 12 17.4981 13.4295 17.4981 15.1921C17.4981 16.9557 16.0442 18.3852 14.249 18.3852C12.455 18.3852 11 16.9557 11 15.1921C11 13.4295 12.455 12 14.249 12ZM28.4725 13.7935C29.2577 13.7935 29.896 14.4206 29.896 15.1921C29.896 15.9646 29.2577 16.5916 28.4725 16.5916H22.26C21.4737 16.5916 20.8354 15.9646 20.8354 15.1921C20.8354 14.4206 21.4737 13.7935 22.26 13.7935H28.4725Z" fill="white"/>
</svg>
