<svg width="52" height="52" viewBox="0 0 52 52" fill="none" xmlns="http://www.w3.org/2000/svg">
<g filter="url(#filter0_d_1_763)">
<rect x="12" y="6" width="28" height="28" rx="7" fill="#BADA55"/>
</g>
<path d="M24.284 14.4C24.4234 14.3996 24.5612 14.426 24.6872 14.4772C24.8132 14.5284 24.9242 14.6032 25.0121 14.696L29.5209 19.4955C29.6582 19.6387 29.7333 19.8182 29.7333 20.0035C29.7333 20.1888 29.6582 20.3683 29.5209 20.5115L24.8534 25.311C24.695 25.4744 24.4673 25.5771 24.2204 25.5966C23.9736 25.6161 23.7278 25.5508 23.5372 25.415C23.3465 25.2792 23.2267 25.0841 23.2039 24.8726C23.1811 24.6611 23.2574 24.4505 23.4158 24.2871L27.5886 19.9995L23.5558 15.7119C23.4417 15.5945 23.3692 15.4515 23.3469 15.2999C23.3246 15.1483 23.3535 14.9943 23.4301 14.8563C23.5067 14.7183 23.6278 14.602 23.7791 14.5211C23.9304 14.4403 24.1056 14.3982 24.284 14.4Z" fill="#FEFFFE"/>
<defs>
<filter id="filter0_d_1_763" x="0" y="0" width="52" height="52" filterUnits="userSpaceOnUse" color-interpolation-filters="sRGB">
<feFlood flood-opacity="0" result="BackgroundImageFix"/>
<feColorMatrix in="SourceAlpha" type="matrix" values="0 0 0 0 0 0 0 0 0 0 0 0 0 0 0 0 0 0 127 0" result="hardAlpha"/>
<feOffset dy="6"/>
<feGaussianBlur stdDeviation="6"/>
<feColorMatrix type="matrix" values="0 0 0 0 0.729412 0 0 0 0 0.854902 0 0 0 0 0.333333 0 0 0 0.142 0"/>
<feBlend mode="normal" in2="BackgroundImageFix" result="effect1_dropShadow_1_763"/>
<feBlend mode="normal" in="SourceGraphic" in2="effect1_dropShadow_1_763" result="shape"/>
</filter>
</defs>
</svg>
