<svg width="21" height="17" viewBox="0 0 21 17" fill="none" xmlns="http://www.w3.org/2000/svg">
<path d="M9.987 5.00478L3.587 10.2788V15.9718C3.587 16.0448 3.60138 16.1171 3.62932 16.1846C3.65726 16.252 3.69822 16.3133 3.74985 16.3649C3.80148 16.4166 3.86277 16.4575 3.93023 16.4855C3.99768 16.5134 4.06998 16.5278 4.143 16.5278L8.035 16.5178C8.18194 16.517 8.32259 16.4581 8.42621 16.3539C8.52983 16.2497 8.588 16.1087 8.588 15.9618V12.6378C8.588 12.4903 8.64658 12.3489 8.75085 12.2446C8.85512 12.1404 8.99654 12.0818 9.144 12.0818H11.367C11.5145 12.0818 11.6559 12.1404 11.7601 12.2446C11.8644 12.3489 11.923 12.4903 11.923 12.6378V15.9598C11.9229 16.0329 11.9372 16.1053 11.965 16.1729C11.9929 16.2404 12.0339 16.3018 12.0855 16.3536C12.1371 16.4053 12.1985 16.4464 12.266 16.4744C12.3335 16.5024 12.4059 16.5168 12.479 16.5168L16.37 16.5278C16.443 16.5278 16.5153 16.5134 16.5828 16.4855C16.6502 16.4575 16.7115 16.4166 16.7631 16.3649C16.8148 16.3133 16.8557 16.252 16.8837 16.1846C16.9116 16.1171 16.926 16.0448 16.926 15.9718V10.2718L10.526 5.00078C10.4497 4.93866 10.3542 4.90508 10.2558 4.90581C10.1574 4.90654 10.0624 4.94154 9.987 5.00478ZM20.103 8.58978L17.203 6.19578V1.38478C17.203 1.27419 17.1591 1.16812 17.0809 1.08992C17.0027 1.01171 16.8966 0.967781 16.786 0.967781H14.837C14.7264 0.967781 14.6203 1.01171 14.5421 1.08992C14.4639 1.16812 14.42 1.27419 14.42 1.38478V3.90678L11.31 1.34778C11.0116 1.1021 10.637 0.967773 10.2505 0.967773C9.86396 0.967773 9.48943 1.1021 9.191 1.34778L0.398998 8.58978C0.313741 8.6602 0.259946 8.7616 0.249445 8.87168C0.238943 8.98176 0.272594 9.09151 0.342998 9.17678L1.229 10.2538C1.2638 10.2961 1.30658 10.3311 1.35492 10.3568C1.40325 10.3826 1.45618 10.3986 1.51069 10.4039C1.5652 10.4092 1.62022 10.4037 1.6726 10.3877C1.72499 10.3717 1.77371 10.3456 1.816 10.3108L9.986 3.58178C10.0612 3.52115 10.1549 3.48808 10.2515 3.48808C10.3481 3.48808 10.4418 3.52115 10.517 3.58178L18.689 10.3148C18.7743 10.3852 18.884 10.4188 18.9941 10.4083C19.1042 10.3978 19.2056 10.344 19.276 10.2588L20.162 9.18178C20.1968 9.13935 20.223 9.09045 20.2389 9.03789C20.2548 8.98534 20.2601 8.93016 20.2546 8.87553C20.2492 8.82089 20.2329 8.76788 20.2069 8.71953C20.1809 8.67118 20.1456 8.62845 20.103 8.59378V8.58978Z" fill="white"/>
</svg>
