<svg width="18" height="14" viewBox="0 0 18 14" fill="none" xmlns="http://www.w3.org/2000/svg">
<path d="M15.767 0.231995H2.23204C1.78452 0.233583 1.3559 0.412612 1.0402 0.729809C0.724502 1.04701 0.547507 1.47647 0.548039 1.92399L0.540039 12.075C0.542143 12.5231 0.721082 12.9522 1.03794 13.2691C1.3548 13.586 1.78394 13.7649 2.23204 13.767H15.767C16.2151 13.7649 16.6443 13.586 16.9611 13.2691C17.278 12.9522 17.4569 12.5231 17.459 12.075V1.92399C17.4569 1.4759 17.278 1.04675 16.9611 0.729894C16.6443 0.413038 16.2151 0.234098 15.767 0.231995ZM15.767 3.61599L8.99904 7.84599L2.23204 3.61599V1.92399L9.00004 6.15399L15.768 1.92399L15.767 3.61599Z" fill="#BADA55"/>
</svg>
