<svg width="22" height="19" viewBox="0 0 22 19" fill="none" xmlns="http://www.w3.org/2000/svg">
<path d="M16.1891 0.632324C17.5575 0.632324 18.8738 1.17315 19.8422 2.14358C20.8116 3.11196 21.3535 4.41811 21.3535 5.78548V13.8468C21.3535 16.6938 19.0371 19 16.1891 19H6.1083C3.26029 19 0.944946 16.6938 0.944946 13.8468V5.78548C0.944946 2.93849 3.25009 0.632324 6.1083 0.632324H16.1891ZM17.3432 5.93854C17.1289 5.92732 16.9248 5.99977 16.7707 6.14263L12.1696 9.81616C11.5778 10.307 10.7298 10.307 10.1288 9.81616L5.53687 6.14263C5.21951 5.90793 4.78073 5.93854 4.51644 6.21406C4.24092 6.48957 4.21031 6.92835 4.44399 7.23448L4.57766 7.36714L9.2206 10.9897C9.79204 11.4386 10.4849 11.6835 11.2104 11.6835C11.9339 11.6835 12.639 11.4386 13.2095 10.9897L17.8126 7.30591L17.8942 7.22428C18.1381 6.92836 18.1381 6.49978 17.883 6.20385C17.7412 6.05181 17.5463 5.95895 17.3432 5.93854Z" fill="white"/>
</svg>
