<svg width="21" height="36" viewBox="0 0 21 36" fill="none" xmlns="http://www.w3.org/2000/svg">
<path opacity="0.39" d="M11 35.967C15.9706 35.967 20 31.9376 20 26.967C20 21.9964 15.9706 17.967 11 17.967C6.02944 17.967 2 21.9964 2 26.967C2 31.9376 6.02944 35.967 11 35.967Z" fill="#A3AC30"/>
<path opacity="0.7" d="M11 32.967C14.3137 32.967 17 30.2807 17 26.967C17 23.6533 14.3137 20.967 11 20.967C7.68629 20.967 5 23.6533 5 26.967C5 30.2807 7.68629 32.967 11 32.967Z" fill="#A3AC30"/>
<path d="M10.5 0.5C7.89749 0.502911 5.40244 1.53803 3.56222 3.37826C1.72199 5.21848 0.686871 7.71353 0.68396 10.316C0.68396 17.033 9.46896 26.895 9.84296 27.316C9.92587 27.4082 10.0272 27.482 10.1405 27.5325C10.2538 27.583 10.3764 27.6091 10.5005 27.6091C10.6245 27.6091 10.7471 27.583 10.8604 27.5325C10.9737 27.482 11.0751 27.4082 11.158 27.316C11.532 26.899 20.317 17.038 20.317 10.316C20.3138 7.71344 19.2784 5.21839 17.4381 3.37819C15.5977 1.538 13.1025 0.502911 10.5 0.5V0.5ZM10.5 15.255C9.52312 15.255 8.56822 14.9653 7.756 14.4226C6.94379 13.8799 6.31074 13.1086 5.93692 12.2061C5.5631 11.3036 5.46529 10.3105 5.65586 9.35245C5.84643 8.39438 6.31683 7.51433 7.00756 6.8236C7.69829 6.13287 8.57834 5.66247 9.53641 5.4719C10.4945 5.28133 11.4876 5.37914 12.39 5.75296C13.2925 6.12678 14.0639 6.75982 14.6066 7.57204C15.1493 8.38425 15.439 9.33916 15.439 10.316C15.4376 11.6255 14.9169 12.881 13.9909 13.8069C13.0649 14.7329 11.8095 15.2537 10.5 15.255Z" fill="#A3AC30"/>
</svg>
