<svg width="13" height="19" viewBox="0 0 13 19" fill="none" xmlns="http://www.w3.org/2000/svg">
<path d="M12.4902 5.1607C12.4495 4.74008 12.2909 4.33947 12.0329 4.00482C11.7748 3.67018 11.4277 3.41505 11.0312 3.2687C10.8598 3.20313 10.7087 3.09371 10.5929 2.95139C10.477 2.80906 10.4006 2.63883 10.3712 2.4577C10.7536 2.25575 11.1779 2.14616 11.6102 2.1377C11.6685 2.13339 11.7243 2.11243 11.771 2.07732C11.8177 2.04221 11.8533 1.99443 11.8737 1.93966C11.894 1.88488 11.8982 1.82542 11.8857 1.76834C11.8732 1.71127 11.8446 1.65898 11.8032 1.6177C10.1432 -0.0423034 6.25323 0.000696538 6.10323 0.000696538C5.92423 0.000696538 1.66723 -0.122303 0.334229 2.9007C0.297229 2.9667 -0.549767 4.5477 0.604233 8.3007V9.8007C0.604233 11.8847 0.804228 14.0087 2.29423 15.4187C2.5311 15.6397 2.78232 15.8448 3.04623 16.0327V18.0057C3.04623 18.0866 3.07836 18.1642 3.13556 18.2214C3.19276 18.2786 3.27034 18.3107 3.35123 18.3107C3.43212 18.3107 3.5097 18.2786 3.56689 18.2214C3.62409 18.1642 3.65623 18.0866 3.65623 18.0057V16.4637L3.76123 16.5337L4.04323 16.7237C4.15923 16.8017 4.27223 16.8857 4.38423 16.9687C4.85169 17.3986 5.45084 17.6576 6.08423 17.7037H6.09323C6.72662 17.6576 7.32577 17.3986 7.79323 16.9687C7.90623 16.8857 8.01923 16.8017 8.13423 16.7237L8.42723 16.5237L8.52723 16.4547V18.0057C8.52723 18.0866 8.55936 18.1642 8.61656 18.2214C8.67376 18.2786 8.75134 18.3107 8.83223 18.3107C8.91312 18.3107 8.9907 18.2786 9.0479 18.2214C9.1051 18.1642 9.13723 18.0866 9.13723 18.0057V16.0357C9.40101 15.8476 9.65221 15.6425 9.88923 15.4217C11.3812 14.0047 11.5892 11.8677 11.5892 9.7687V8.9007C12.2123 7.75461 12.5231 6.4648 12.4902 5.1607ZM10.9902 8.8347V9.7687C10.9902 11.7307 10.8072 13.7197 9.48223 14.9777C9.23362 15.2082 8.96896 15.4207 8.69023 15.6137L8.66923 15.6247C8.47723 15.7607 8.28123 15.8917 8.08623 16.0247L7.79323 16.2247C7.67123 16.3077 7.55123 16.3967 7.43223 16.4847C7.26681 16.6776 7.06164 16.8324 6.83078 16.9385C6.59992 17.0447 6.34882 17.0996 6.09473 17.0996C5.84063 17.0996 5.58954 17.0447 5.35868 16.9385C5.12782 16.8324 4.92265 16.6776 4.75723 16.4847C4.63823 16.3967 4.51823 16.3077 4.39623 16.2247L4.09623 16.0247C3.6067 15.7173 3.14405 15.3691 2.71323 14.9837C1.32923 13.6707 1.21323 11.6237 1.21323 9.8097V8.2497V7.0277C1.21293 6.82365 1.25374 6.62163 1.33323 6.4337C1.36436 6.36176 1.40254 6.29309 1.44723 6.2287C1.46023 6.2097 1.47423 6.1917 1.48823 6.1737C1.52234 6.1286 1.55942 6.08584 1.59923 6.0457C1.61523 6.0297 1.63023 6.0137 1.64823 5.9977C1.70122 5.94945 1.75807 5.90564 1.81823 5.8667L1.83023 5.8587C1.8966 5.81952 1.96618 5.78606 2.03823 5.7587L2.09823 5.7377C2.15381 5.71782 2.21059 5.70146 2.26823 5.6887C2.29123 5.6837 2.31323 5.6787 2.33723 5.6747C2.40733 5.66287 2.47817 5.65585 2.54923 5.6537H2.57823C2.64181 5.65493 2.70525 5.65994 2.76823 5.6687C2.79523 5.6687 2.82223 5.6687 2.84923 5.6757C2.94149 5.69125 3.03219 5.71501 3.12023 5.7467C4.085 6.03508 5.09125 6.1598 6.09723 6.1157C7.10321 6.1598 8.10947 6.03508 9.07423 5.7467C9.40384 5.61171 9.77262 5.60811 10.1048 5.73663C10.437 5.86515 10.7073 6.11602 10.8602 6.4377C10.9398 6.62559 10.9806 6.82764 10.9802 7.0317L10.9902 8.8347Z" fill="white"/>
</svg>
