<svg width="13" height="19" viewBox="0 0 13 19" fill="none" xmlns="http://www.w3.org/2000/svg">
<path d="M12.4902 5.80669C12.4495 5.38607 12.291 4.98546 12.0329 4.65082C11.7748 4.31617 11.4277 4.06104 11.0312 3.91469C10.8598 3.84912 10.7087 3.73971 10.5929 3.59738C10.477 3.45506 10.4006 3.28482 10.3712 3.10369C10.7536 2.90175 11.1779 2.79216 11.6102 2.78369C11.6685 2.77938 11.7243 2.75843 11.771 2.72332C11.8177 2.68821 11.8533 2.64043 11.8737 2.58565C11.894 2.53088 11.8982 2.47142 11.8857 2.41434C11.8732 2.35726 11.8446 2.30497 11.8032 2.26369C10.1432 0.603693 6.25323 0.646693 6.10323 0.646693C5.92423 0.646693 1.66723 0.523693 0.334229 3.54669C0.297229 3.61269 -0.549767 5.19369 0.604233 8.94669V10.4467C0.604233 12.5307 0.804228 14.6547 2.29423 16.0647C2.5311 16.2857 2.78232 16.4908 3.04623 16.6787V18.6517C3.04623 18.7326 3.07836 18.8102 3.13556 18.8674C3.19276 18.9246 3.27034 18.9567 3.35123 18.9567C3.43212 18.9567 3.5097 18.9246 3.56689 18.8674C3.62409 18.8102 3.65623 18.7326 3.65623 18.6517V17.1097L3.76123 17.1797L4.04323 17.3697C4.15923 17.4477 4.27223 17.5317 4.38423 17.6147C4.85169 18.0446 5.45084 18.3036 6.08423 18.3497H6.09323C6.72662 18.3036 7.32577 18.0446 7.79323 17.6147C7.90623 17.5317 8.01923 17.4477 8.13423 17.3697L8.42723 17.1697L8.52723 17.1007V18.6517C8.52723 18.7326 8.55936 18.8102 8.61656 18.8674C8.67376 18.9246 8.75134 18.9567 8.83223 18.9567C8.91312 18.9567 8.9907 18.9246 9.0479 18.8674C9.1051 18.8102 9.13723 18.7326 9.13723 18.6517V16.6817C9.40101 16.4936 9.65221 16.2885 9.88923 16.0677C11.3812 14.6507 11.5892 12.5137 11.5892 10.4147V9.54669C12.2123 8.40061 12.5231 7.1108 12.4902 5.80669V5.80669ZM10.9902 9.48069V10.4147C10.9902 12.3767 10.8072 14.3657 9.48223 15.6237C9.23362 15.8542 8.96896 16.0667 8.69023 16.2597L8.66923 16.2707C8.47723 16.4067 8.28123 16.5377 8.08623 16.6707L7.79323 16.8707C7.67123 16.9537 7.55123 17.0427 7.43223 17.1307C7.26681 17.3236 7.06164 17.4784 6.83078 17.5845C6.59992 17.6907 6.34882 17.7456 6.09473 17.7456C5.84063 17.7456 5.58954 17.6907 5.35868 17.5845C5.12782 17.4784 4.92265 17.3236 4.75723 17.1307C4.63823 17.0427 4.51823 16.9537 4.39623 16.8707L4.09623 16.6707C3.6067 16.3633 3.14405 16.0151 2.71323 15.6297C1.32923 14.3167 1.21323 12.2697 1.21323 10.4557V8.89569V7.67369C1.21293 7.46964 1.25374 7.26762 1.33323 7.07969C1.36436 7.00776 1.40254 6.93909 1.44723 6.87469C1.46023 6.85569 1.47423 6.83769 1.48823 6.81969C1.52234 6.7746 1.55942 6.73184 1.59923 6.69169C1.61523 6.67569 1.63023 6.65969 1.64823 6.64369C1.70122 6.59545 1.75807 6.55163 1.81823 6.51269L1.83023 6.50469C1.8966 6.46551 1.96618 6.43206 2.03823 6.40469L2.09823 6.38369C2.15381 6.36382 2.21059 6.34745 2.26823 6.33469C2.29123 6.32969 2.31323 6.32469 2.33723 6.32069C2.40733 6.30887 2.47817 6.30185 2.54923 6.29969H2.57823C2.64181 6.30093 2.70525 6.30594 2.76823 6.31469C2.79523 6.31469 2.82223 6.31469 2.84923 6.32169C2.94149 6.33725 3.03219 6.36101 3.12023 6.39269C4.085 6.68107 5.09125 6.8058 6.09723 6.76169C7.10321 6.8058 8.10947 6.68107 9.07423 6.39269C9.40384 6.25771 9.77262 6.2541 10.1048 6.38262C10.437 6.51114 10.7073 6.76202 10.8602 7.08369C10.9398 7.27159 10.9806 7.47363 10.9802 7.67769L10.9902 9.48069Z" fill="#B3B3B3"/>
</svg>
