<svg width="10" height="9" viewBox="0 0 10 9" fill="none" xmlns="http://www.w3.org/2000/svg">
<path d="M8.99975 6.24084V7.29463C9.00021 7.39245 8.97726 7.48928 8.93238 7.57892C8.8875 7.66855 8.82168 7.74901 8.73913 7.81515C8.65659 7.88128 8.55913 7.93163 8.45301 7.96297C8.34689 7.99431 8.23444 8.00595 8.12287 7.99715C6.88512 7.8797 5.69617 7.51035 4.65156 6.91878C3.67969 6.37947 2.85571 5.65992 2.23813 4.81121C1.55834 3.89485 1.1353 2.85153 1.00326 1.76578C0.993213 1.66865 1.00643 1.57075 1.04208 1.47832C1.07773 1.38589 1.13503 1.30096 1.21032 1.22892C1.28562 1.15689 1.37727 1.09934 1.47943 1.05993C1.58159 1.02052 1.69203 1.00013 1.80372 1.00003H3.01043C3.20564 0.998356 3.39489 1.05872 3.5429 1.16988C3.69091 1.28104 3.78759 1.4354 3.81491 1.6042C3.86584 1.94144 3.9603 2.27256 4.09647 2.59125C4.15059 2.71697 4.1623 2.85361 4.13022 2.98497C4.09814 3.11633 4.02361 3.2369 3.91547 3.33241L3.40462 3.77851C3.97723 4.6579 4.81103 5.38603 5.81805 5.88607L6.32889 5.43997C6.43826 5.34553 6.57633 5.28044 6.72675 5.25243C6.87718 5.22441 7.03364 5.23464 7.17761 5.2819C7.54255 5.40082 7.92173 5.48331 8.3079 5.52779C8.5033 5.55186 8.68174 5.6378 8.80931 5.76928C8.93687 5.90075 9.00465 6.06858 8.99975 6.24084Z" stroke="#656D70" stroke-width="0.8" stroke-linecap="round" stroke-linejoin="round"/>
</svg>
