<svg width="10" height="12" viewBox="0 0 10 12" fill="none" xmlns="http://www.w3.org/2000/svg">
<path d="M8.43449 2.73641C7.67207 1.63298 6.46376 1 5.1196 1C3.77545 1 2.56713 1.63298 1.80472 2.73641C1.04604 3.83427 0.870863 5.22418 1.33518 6.45216C1.45937 6.7875 1.65678 7.1133 1.92054 7.41861L4.85376 10.864C4.9201 10.942 5.0173 10.9869 5.1196 10.9869C5.22191 10.9869 5.31911 10.942 5.38545 10.864L8.31785 7.41954C8.58277 7.11248 8.77994 6.78703 8.90309 6.45438C9.36834 5.22418 9.19316 3.83427 8.43449 2.73641ZM8.24919 6.20982C8.15421 6.46648 7.99916 6.72023 7.7886 6.9643C7.78801 6.96489 7.78743 6.96547 7.78696 6.96617L5.1196 10.0991L2.45061 6.9642C2.24016 6.72034 2.08511 6.46661 1.9892 6.2075C1.60521 5.19194 1.75094 4.04274 2.37914 3.13357C3.00931 2.22148 4.00823 1.69838 5.1196 1.69838C6.23096 1.69838 7.22976 2.22146 7.85995 3.13357C8.48827 4.04274 8.63411 5.19194 8.24919 6.20982Z" fill="#656D70" stroke="#656D70" stroke-width="0.170101"/>
<path d="M5.11954 3.07184C4.04135 3.07184 3.16406 3.94901 3.16406 5.02732C3.16406 6.10563 4.04123 6.9828 5.11954 6.9828C6.19785 6.9828 7.07502 6.10563 7.07502 5.02732C7.07502 3.94912 6.19774 3.07184 5.11954 3.07184ZM5.11954 6.2844C4.42639 6.2844 3.86244 5.72045 3.86244 5.0273C3.86244 4.33415 4.42639 3.7702 5.11954 3.7702C5.8127 3.7702 6.37664 4.33415 6.37664 5.0273C6.37664 5.72045 5.8127 6.2844 5.11954 6.2844Z" fill="#656D70" stroke="#656D70" stroke-width="0.170101"/>
</svg>
