<svg width="33" height="33" viewBox="0 0 33 33" fill="none" xmlns="http://www.w3.org/2000/svg">
<path opacity="0.8" d="M33 16.5C33 25.6128 25.6128 33 16.5 33C7.38718 33 0 25.6128 0 16.5C0 7.38718 7.38718 0 16.5 0C25.6128 0 33 7.38718 33 16.5Z" fill="#005FD2"/>
<path d="M14.6441 10.5804C14.739 10.1753 15.1006 9.88879 15.5168 9.88879H22.2576C22.9624 9.88879 23.5983 10.0215 24.1656 10.2866C24.7328 10.552 25.2099 10.9029 25.5966 11.3395C25.9833 11.7766 26.2799 12.2756 26.4861 12.8373C26.6926 13.3987 26.7956 13.976 26.7956 14.5687C26.7956 15.3643 26.6062 16.1561 26.2283 16.9439C25.8502 17.7317 25.3388 18.4336 24.6943 19.0497C24.0497 19.666 23.302 20.1693 22.4513 20.5591C21.6003 20.9491 20.6934 21.1439 19.7309 21.1439H16.8172L15.5913 26.1098C15.4923 26.5099 15.1336 26.7911 14.7212 26.7911H11.9756C11.3981 26.7911 10.9713 26.2528 11.103 25.6904L14.6441 10.5804Z" fill="#78B9EB"/>
<path d="M10.8868 7.08029C10.9817 6.67494 11.343 6.38843 11.7591 6.38843H18.5003C19.2047 6.38843 19.841 6.52136 20.4082 6.78622C20.9754 7.05184 21.4525 7.40281 21.8393 7.83938C22.226 8.2762 22.5223 8.77546 22.7288 9.33691C22.935 9.89835 23.0382 10.4757 23.0382 11.0686C23.0382 11.8642 22.8489 12.656 22.471 13.4435C22.0925 14.2316 21.5815 14.9335 20.9367 15.5496C20.2921 16.1659 19.5444 16.669 18.6937 17.0587C17.8427 17.4489 16.9358 17.6438 15.9735 17.6438H12.9888L11.8281 22.5991C11.7332 23.0042 11.3719 23.2908 10.9557 23.2908H8.218C7.64044 23.2908 7.21369 22.7525 7.34562 22.19L10.8868 7.08029Z" fill="white"/>
</svg>
