<svg width="20" height="20" viewBox="0 0 20 20" fill="none" xmlns="http://www.w3.org/2000/svg">
<path d="M14.7049 10.8503C14.2387 10.6758 13.7322 10.6381 13.2453 10.7417C12.7579 10.8455 12.3101 11.0866 11.9554 11.4368L11.9553 11.4367L11.9514 11.4407L11.4857 11.9055C10.1269 11.0158 8.96557 9.8571 8.07389 8.50155L8.53734 8.03902L8.53735 8.03903L8.54129 8.03506C8.89216 7.68094 9.13417 7.23363 9.23837 6.74604C9.34257 6.25844 9.30451 5.75125 9.12877 5.28466L8.19298 5.63712L9.12962 5.28692C8.88371 4.62924 8.71316 3.94593 8.62119 3.25002L8.62124 3.25002L8.61993 3.24081C8.53119 2.61418 8.21722 2.04156 7.73709 1.62947C7.25841 1.21862 6.6471 0.99521 6.01654 1.00008L3.60744 1.00008L3.6065 1.00008C3.24459 1.00042 2.88666 1.07596 2.55548 1.22195C2.2243 1.36795 1.92706 1.58123 1.68275 1.84833C1.43844 2.11544 1.25242 2.43052 1.13666 2.77354C1.0209 3.11658 0.977955 3.47996 1.0106 3.84054L1.01214 3.85617C1.2927 6.49292 2.19131 9.02658 3.63508 11.2521C4.94805 13.313 6.69895 15.0604 8.76363 16.3706C10.9831 17.8063 13.5088 18.7025 16.1379 18.9877L16.1559 18.9894L14.7065 10.8509C14.7059 10.8507 14.7054 10.8505 14.7049 10.8503ZM14.7049 10.8503C15.364 11.0957 16.0488 11.266 16.7463 11.3578L16.7552 11.359L16.7552 11.359C17.3884 11.4481 17.967 11.7665 18.3809 12.254C18.7919 12.7381 19.0119 13.3553 18.9995 13.99V16.3857L14.7049 10.8503Z" stroke="#3E5481" stroke-width="2" stroke-linecap="round" stroke-linejoin="round"/>
</svg>
