<svg width="17" height="17" viewBox="0 0 17 17" fill="none" xmlns="http://www.w3.org/2000/svg">
<path d="M13.2776 13.3061C13.6061 12.9798 14.1328 12.9798 14.4614 13.3061L16.6328 15.059H16.6705C17.1098 15.503 17.1098 16.2229 16.6705 16.667C16.2312 17.111 15.5189 17.111 15.0796 16.667L13.2776 14.6017L13.2092 14.5245C13.0818 14.3633 13.0115 14.1623 13.0115 13.9539C13.0115 13.7108 13.1072 13.4777 13.2776 13.3061ZM7.29099 0C9.22469 0 11.0792 0.776421 12.4465 2.15846C13.8138 3.5405 14.582 5.41494 14.582 7.36944C14.582 11.4395 11.3177 14.7389 7.29099 14.7389C3.26429 14.7389 0 11.4395 0 7.36944C0 3.29941 3.26429 0 7.29099 0Z" fill="black"/>
</svg>
