<svg width="14" height="18" viewBox="0 0 14 18" fill="none" xmlns="http://www.w3.org/2000/svg">
<path d="M13.9917 14.6208L13.2185 4.8778C13.1705 4.25005 12.6395 3.75851 12.01 3.75851H10.4827V6.02146C10.4827 6.3017 10.2558 6.52855 9.9756 6.52855C9.69569 6.52855 9.46851 6.3017 9.46851 6.02146V3.75851H4.80339V6.02146C4.80339 6.3017 4.57621 6.52855 4.2963 6.52855C4.01606 6.52855 3.78921 6.3017 3.78921 6.02146V3.75851H2.26189C1.63245 3.75851 1.10135 4.25005 1.05337 4.87644L0.2799 14.6222C0.220077 15.4028 0.490851 16.1796 1.02259 16.7536C1.55437 17.3276 2.30822 17.6572 3.09082 17.6572H11.1811C11.9637 17.6572 12.7176 17.3276 13.2493 16.7536C13.7811 16.1796 14.0519 15.4027 13.9917 14.6208Z" fill="#B3B3B3"/>
<path d="M7.13603 0.342804C5.29059 0.342804 3.78931 1.84442 3.78931 3.68986V3.75848H4.80349V3.68986C4.80349 2.40356 5.84976 1.35695 7.13606 1.35695C8.42237 1.35695 9.46864 2.40356 9.46864 3.68986V3.75848H10.4828V3.68986C10.4827 1.84442 8.98147 0.342804 7.13603 0.342804Z" fill="#B3B3B3"/>
</svg>
