<svg width="16" height="20" viewBox="0 0 16 20" fill="none" xmlns="http://www.w3.org/2000/svg">
<path fill-rule="evenodd" clip-rule="evenodd" d="M8 12.5492C11.4341 12.5492 16 12.9343 16 16.2666C16 19.7767 10.6798 19.9874 8.39769 20L7.56913 20C5.13587 19.9874 0 19.778 0 16.2876C0 12.7735 5.32022 12.5626 7.60231 12.55L7.87649 12.5492C7.91923 12.5492 7.96042 12.5492 8 12.5492ZM8 14.1235C5.07165 14.1235 1.58061 14.4981 1.58061 16.2876C1.58061 17.7065 3.74078 18.4265 8 18.4265C12.2592 18.4265 14.4194 17.6992 14.4194 16.2666C14.4194 14.8445 12.2592 14.1235 8 14.1235ZM8 0C10.9831 0 13.411 2.41811 13.411 5.38931C13.4173 6.82086 12.8599 8.17265 11.844 9.19069C10.8303 10.2098 9.47629 10.7734 8.03583 10.7786H8C5.01581 10.7786 2.58799 8.36052 2.58799 5.38931C2.58799 2.41811 5.01581 0 8 0ZM8 1.57429C5.88725 1.57429 4.1686 3.28606 4.1686 5.38931C4.1686 7.49256 5.88725 9.20434 8 9.20434H8.03267C9.04847 9.20014 10.0053 8.80237 10.7229 8.08134C11.4415 7.36242 11.8346 6.4063 11.8304 5.39246C11.8304 3.28606 10.1117 1.57429 8 1.57429Z" fill="#3E5481"/>
</svg>
