<svg width="46" height="58" viewBox="0 0 46 58" fill="none" xmlns="http://www.w3.org/2000/svg">
<path opacity="0.3" d="M23 0C25.561 0 28.0646 0.765366 30.194 2.19931C32.3234 3.63326 33.9831 5.67138 34.9632 8.05595C35.9432 10.4405 36.1997 13.0644 35.7 15.5959C35.2004 18.1273 33.9671 20.4526 32.1562 22.2777C30.3453 24.1027 28.038 25.3456 25.5262 25.8491C23.0144 26.3527 20.4108 26.0942 18.0447 25.1065C15.6786 24.1188 13.6563 22.4462 12.2334 20.3001C10.8106 18.1541 10.0512 15.631 10.0512 13.0499C10.0512 9.58889 11.4154 6.26958 13.8438 3.82224C16.2722 1.3749 19.5658 0 23 0ZM0 49.0968C0.049917 45.289 1.58536 41.6542 4.27415 38.9786C6.96293 36.303 10.5888 34.8018 14.3674 34.7999H31.6326C35.4112 34.8018 39.0371 36.303 41.7259 38.9786C44.4146 41.6542 45.9501 45.289 46 49.0968C39.6891 54.8282 31.4952 58 23 58C14.5048 58 6.31085 54.8282 0 49.0968Z" fill="black"/>
</svg>
