<svg width="17" height="17" viewBox="0 0 17 17" fill="none" xmlns="http://www.w3.org/2000/svg">
<path d="M12.3666 0.893066C15.2803 0.893066 17 2.5697 17 5.43974H13.4255V5.46903C11.7665 5.46903 10.4216 6.78021 10.4216 8.39764C10.4216 10.0151 11.7665 11.3263 13.4255 11.3263H17V11.5898C17 14.4233 15.2803 16.0999 12.3666 16.0999H4.73691C1.8232 16.0999 0.103516 14.4233 0.103516 11.5898V5.40313C0.103516 2.5697 1.8232 0.893066 4.73691 0.893066H12.3666ZM16.3692 6.69905C16.7176 6.69905 17 6.9744 17 7.31406V9.45195C16.9959 9.78995 16.7159 10.063 16.3692 10.067H13.493C12.6532 10.078 11.9188 9.51735 11.7283 8.71979C11.6329 8.2247 11.7668 7.71381 12.0942 7.32405C12.4215 6.93429 12.9088 6.70552 13.4255 6.69905H16.3692ZM13.831 7.68745H13.5531C13.3825 7.6855 13.2182 7.7502 13.0969 7.86712C12.9756 7.98404 12.9073 8.14346 12.9073 8.30978C12.9073 8.65874 13.1952 8.94275 13.5531 8.94676H13.831C14.1876 8.94676 14.4768 8.66485 14.4768 8.31711C14.4768 7.96936 14.1876 7.68745 13.831 7.68745ZM8.87467 4.18044H4.1061C3.75234 4.18041 3.4644 4.45788 3.46028 4.80277C3.46028 5.15172 3.74822 5.43573 4.1061 5.43974H8.87467C9.23135 5.43974 9.52049 5.15784 9.52049 4.81009C9.52049 4.46234 9.23135 4.18044 8.87467 4.18044Z" fill="white"/>
</svg>
