<svg width="39" height="38" viewBox="0 0 39 38" fill="none" xmlns="http://www.w3.org/2000/svg">
<rect opacity="0.1" width="39" height="38" rx="10" fill="#D8572E"/>
<path d="M15.9079 9.00016C16.6009 9.02033 17.2719 9.13612 17.922 9.34769H17.9869C18.0309 9.36769 18.0639 9.3898 18.0859 9.4098C18.329 9.48453 18.5589 9.56874 18.7789 9.68453L19.1969 9.86347C19.3619 9.94768 19.5599 10.1045 19.6699 10.1687C19.7799 10.2308 19.9009 10.295 19.9999 10.3677C21.222 9.47401 22.7059 8.9898 24.2349 9.00016C24.929 9.00016 25.6219 9.09401 26.2808 9.30559C30.3409 10.5687 31.8039 14.8318 30.5818 18.5581C29.8888 20.4622 28.7558 22.2001 27.2719 23.6201C25.1479 25.5885 22.817 27.3358 20.3079 28.8411L20.0329 29L19.7469 28.8305C17.229 27.3358 14.885 25.5885 12.7411 23.6096C11.2671 22.1896 10.133 20.4622 9.42901 18.5581C8.18603 14.8318 9.64901 10.5687 13.7531 9.28348C14.0721 9.17822 14.401 9.10454 14.731 9.06349H14.863C15.1721 9.02033 15.479 9.00016 15.7869 9.00016H15.9079ZM25.7088 12.3266C25.2578 12.1782 24.7629 12.4108 24.5979 12.8529C24.4439 13.295 24.6859 13.7792 25.1478 13.936C25.8529 14.1887 26.3248 14.8529 26.3248 15.5886V15.6213C26.3039 15.8623 26.3798 16.0949 26.5338 16.2739C26.6878 16.4528 26.9188 16.557 27.1608 16.5792C27.6118 16.5676 27.9968 16.2213 28.0298 15.7781V15.6529C28.0628 14.1781 27.1289 12.8424 25.7088 12.3266Z" fill="#D8572E"/>
</svg>
