<svg width="52" height="52" viewBox="0 0 52 52" fill="none" xmlns="http://www.w3.org/2000/svg">
<path fill-rule="evenodd" clip-rule="evenodd" d="M25.998 14.4387C28.2219 13.0154 31.176 12.6222 33.7281 13.4501C39.2795 15.2625 41.0028 21.3891 39.4614 26.264C37.083 33.9205 26.9253 39.6317 26.4945 39.8712C26.3413 39.9571 26.1717 40 26.0021 40C25.8326 40 25.6643 39.9585 25.5112 39.874C25.0831 39.6373 14.9992 34.0105 12.5415 26.2654C12.5402 26.2654 12.5402 26.264 12.5402 26.264C10.9974 21.3877 12.7152 15.2597 18.2611 13.4501C20.8652 12.5973 23.7031 12.9725 25.998 14.4387ZM18.8903 15.4273C14.4029 16.8921 13.276 21.7781 14.4946 25.6313C16.412 31.6706 23.9876 36.5539 26.0008 37.7626C28.0208 36.5414 35.6511 31.6042 37.507 25.6368C38.7256 21.7795 37.5945 16.8935 33.1004 15.4273C30.923 14.7198 28.3833 15.1503 26.6299 16.5238C26.2634 16.809 25.7546 16.8146 25.3853 16.5321C23.528 15.1185 21.1018 14.7045 18.8903 15.4273ZM31.7874 18.1768C33.6515 18.7874 34.9577 20.4585 35.1177 22.4343C35.1628 23.0061 34.7429 23.5073 34.1781 23.553C34.1494 23.5557 34.122 23.5571 34.0933 23.5571C33.564 23.5571 33.1154 23.1459 33.0716 22.6032C32.9814 21.4651 32.2292 20.5042 31.1583 20.1539C30.618 19.9767 30.3226 19.391 30.4963 18.8469C30.6727 18.3014 31.2458 18.0051 31.7874 18.1768Z" fill="#FC4026"/>
<rect x="1" y="1" width="50" height="50" rx="6" stroke="#D8572E" stroke-width="2"/>
</svg>
